<svg width="35" height="29" viewBox="0 0 35 29" fill="none" xmlns="http://www.w3.org/2000/svg">
<path d="M34.134 1.9C34.482 2.40267 34.598 3.19533 34.482 4.278C34.4047 5.322 34.2113 6.46267 33.902 7.7C33.5927 8.89867 33.2253 10.0973 32.8 11.296C32.3747 12.456 32.0267 13.4227 31.756 14.196C31.0987 15.9747 30.5187 17.6373 30.016 19.184C29.5133 20.7307 28.914 22.432 28.218 24.288C27.986 24.8293 27.754 25.3707 27.522 25.912C27.3287 26.4533 27.0773 26.9367 26.768 27.362C26.4973 27.7873 26.1493 28.1353 25.724 28.406C25.3373 28.6767 24.854 28.812 24.274 28.812C23.6167 28.812 23.0367 28.58 22.534 28.116C22.07 27.652 21.664 27.072 21.316 26.376C21.0067 25.68 20.736 24.9453 20.504 24.172C20.272 23.3987 20.0787 22.722 19.924 22.142C19.4213 20.4407 18.9767 18.894 18.59 17.502C18.2033 16.0713 17.8553 14.7953 17.546 13.674C17.198 14.7953 16.85 16.0133 16.502 17.328C16.154 18.6427 15.7093 20.1313 15.168 21.794C15.0133 22.374 14.82 23.0893 14.588 23.94C14.356 24.752 14.066 25.5253 13.718 26.26C13.4087 26.9947 13.0027 27.6133 12.5 28.116C12.036 28.6573 11.4753 28.8893 10.818 28.812C9.89 28.7733 9.078 28.406 8.382 27.71C7.72467 26.9753 7.14467 26.1053 6.642 25.1C6.178 24.0947 5.772 23.0507 5.424 21.968C5.076 20.8853 4.786 19.938 4.554 19.126C4.24467 18.082 3.87733 16.922 3.452 15.646C3.02667 14.37 2.60133 13.0747 2.176 11.76C1.78933 10.4067 1.422 9.07267 1.074 7.758C0.726 6.40467 0.494 5.16733 0.378 4.046C0.300667 3.31133 0.436 2.63467 0.784 2.016C1.17067 1.39733 1.654 0.971999 2.234 0.739998C2.85267 0.469332 3.51 0.411332 4.206 0.565999C4.94067 0.720666 5.598 1.18467 6.178 1.958C6.48733 2.34467 6.758 2.828 6.99 3.408C7.26067 3.988 7.49267 4.626 7.686 5.322C7.87933 5.97933 8.07267 6.656 8.266 7.352C8.45933 8.048 8.65267 8.72467 8.846 9.382C9.27133 10.8513 9.61933 12.0113 9.89 12.862C10.1993 13.674 10.5087 14.5247 10.818 15.414C11.0887 14.5247 11.3593 13.674 11.63 12.862C11.9393 12.0113 12.3067 10.8513 12.732 9.382C12.8867 8.918 13.0607 8.396 13.254 7.816C13.486 7.19733 13.718 6.61733 13.95 6.076C14.2207 5.53467 14.5107 5.032 14.82 4.568C15.168 4.06533 15.5353 3.698 15.922 3.466C16.7727 2.886 17.546 2.75067 18.242 3.06C18.938 3.33067 19.5373 3.814 20.04 4.51C20.5427 5.206 20.968 6.018 21.316 6.946C21.7027 7.83533 22.012 8.64733 22.244 9.382C22.476 10.1553 22.6887 10.832 22.882 11.412C23.0753 11.9533 23.2493 12.456 23.404 12.92C23.5587 13.384 23.694 13.8287 23.81 14.254C23.9647 14.6793 24.1193 15.124 24.274 15.588C24.4287 15.124 24.564 14.6793 24.68 14.254C24.8347 13.8287 24.9893 13.384 25.144 12.92C25.2987 12.456 25.4727 11.9533 25.666 11.412C25.8593 10.832 26.072 10.1553 26.304 9.382C26.4587 8.87933 26.6133 8.29933 26.768 7.642C26.9613 6.98467 27.1547 6.32733 27.348 5.67C27.5413 4.974 27.7347 4.31667 27.928 3.698C28.16 3.07933 28.4113 2.55733 28.682 2.132C28.9527 1.70667 29.32 1.35867 29.784 1.088C30.248 0.778665 30.7313 0.604665 31.234 0.565999C31.7367 0.488665 32.2393 0.546665 32.742 0.739998C33.2833 0.933331 33.7473 1.32 34.134 1.9Z" fill="white"/>
</svg>
