<svg width="117" height="62" viewBox="0 0 117 99" fill="none" xmlns="http://www.w3.org/2000/svg">
<g filter="url(#filter0_d_62_54)">
<path d="M21.8517 78.6778C21.5407 78.4813 21.1887 78.3258 20.7957 78.2112C20.4192 78.0966 20.0262 77.9901 19.6169 77.8919C19.224 77.7937 18.8393 77.6873 18.4627 77.5727C18.0861 77.4417 17.7423 77.2616 17.4313 77.0324C16.76 76.5248 16.3671 75.9027 16.2525 75.166C16.1542 74.4128 16.318 73.6597 16.7436 72.9066C16.9728 72.5137 17.2757 72.1944 17.6523 71.9488C18.0288 71.6869 18.4381 71.4904 18.8802 71.3594C19.3386 71.2121 19.8052 71.1302 20.28 71.1139C20.7548 71.0975 21.205 71.122 21.6307 71.1875C21.909 71.2367 22.2037 71.3103 22.5148 71.4086C22.8259 71.4904 23.1124 71.605 23.3743 71.7524C23.6527 71.8997 23.8982 72.088 24.1111 72.3172C24.3403 72.53 24.504 72.8002 24.6022 73.1276C24.6677 73.3405 24.6759 73.5451 24.6268 73.7416C24.594 73.938 24.5122 74.1018 24.3812 74.2327C24.2666 74.3637 24.1111 74.462 23.9146 74.5274C23.7345 74.5929 23.538 74.6093 23.3252 74.5766C23.0796 74.5274 22.8504 74.4538 22.6376 74.3555C22.4247 74.2573 22.2119 74.1509 21.9991 74.0363C21.7862 73.9217 21.5652 73.8234 21.336 73.7416C21.1232 73.6597 20.894 73.6188 20.6484 73.6188C20.2718 73.6024 19.9607 73.6679 19.7152 73.8153C19.4696 73.9626 19.2977 74.1427 19.1994 74.3555C19.1176 74.5684 19.1258 74.7976 19.224 75.0432C19.3386 75.2887 19.5678 75.5016 19.9116 75.6817C20.2227 75.8454 20.5665 75.9764 20.9431 76.0746C21.3196 76.1728 21.688 76.2711 22.0482 76.3693C22.4247 76.4675 22.7849 76.5821 23.1287 76.7131C23.4889 76.8441 23.8082 77.0242 24.0865 77.2534C24.6268 77.6954 24.9542 78.2112 25.0688 78.8006C25.1998 79.39 25.1671 79.9712 24.9706 80.5442C24.7741 81.1172 24.4303 81.6247 23.9392 82.0668C23.4644 82.5088 22.8995 82.8035 22.2447 82.9509C21.7699 83.0491 21.2541 83.0982 20.6975 83.0982C20.1572 83.0982 19.6169 83.0409 19.0767 82.9263C18.5527 82.8117 18.0452 82.6316 17.554 82.386C17.0793 82.1405 16.6781 81.8294 16.3507 81.4528C16.1215 81.1909 15.9987 80.8962 15.9823 80.5687C15.9823 80.2249 16.0478 79.9302 16.1788 79.6847C16.3261 79.4227 16.5308 79.2426 16.7927 79.1444C17.0547 79.0461 17.3494 79.1034 17.6768 79.3163C17.9388 79.4964 18.2499 79.6765 18.61 79.8566C18.9702 80.0203 19.3304 80.1513 19.6906 80.2495C20.0508 80.3477 20.3946 80.3968 20.722 80.3968C21.0659 80.3968 21.3606 80.3232 21.6061 80.1758C21.9663 79.9466 22.1546 79.6847 22.171 79.39C22.1873 79.0789 22.0809 78.8415 21.8517 78.6778ZM38.7755 72.1699C38.9065 72.4809 38.9147 72.8247 38.8001 73.2013C38.7019 73.5779 38.5136 73.8234 38.2353 73.938C38.0879 74.0035 37.8914 74.0608 37.6459 74.11C37.4003 74.1427 37.1301 74.1754 36.8354 74.2082C36.5571 74.2409 36.2788 74.2655 36.0005 74.2819C35.7221 74.2982 35.4847 74.3064 35.2883 74.3064C35.3047 74.7976 35.321 75.3051 35.3374 75.829C35.3538 76.3366 35.3701 76.8359 35.3865 77.3271C35.4029 77.8182 35.4111 78.293 35.4111 78.7514C35.4111 79.1935 35.4029 79.5946 35.3865 79.9548C35.3865 80.2004 35.3865 80.4869 35.3865 80.8143C35.3865 81.1254 35.362 81.4283 35.3128 81.723C35.2801 82.0177 35.2228 82.2796 35.1409 82.5088C35.0591 82.7217 34.9363 82.8608 34.7726 82.9263C34.265 83.1392 33.7984 83.1965 33.3727 83.0982C32.9634 83.0164 32.6687 82.8445 32.4887 82.5825C32.3577 82.3697 32.2594 82.1241 32.194 81.8458C32.1285 81.5511 32.0794 81.2564 32.0466 80.9617C32.0302 80.6506 32.0221 80.3559 32.0221 80.0776C32.0384 79.7829 32.0466 79.5291 32.0466 79.3163C32.063 78.6287 32.0712 77.851 32.0712 76.9833C32.0875 76.0992 32.0957 75.2151 32.0957 74.331H31.7274C31.5309 74.331 31.2771 74.331 30.9661 74.331C30.6714 74.3146 30.3685 74.29 30.0574 74.2573C29.7627 74.2082 29.4844 74.1509 29.2224 74.0854C28.9605 74.0035 28.7722 73.8889 28.6576 73.7416C28.4775 73.5287 28.3629 73.2995 28.3138 73.054C28.281 72.8084 28.2974 72.5792 28.3629 72.3663C28.4447 72.1371 28.5675 71.9407 28.7313 71.7769C28.895 71.5968 29.0833 71.4822 29.2961 71.4331C29.5908 71.3513 30.0083 71.3103 30.5486 71.3103C31.0888 71.294 31.5964 71.294 32.0712 71.3103C32.0548 71.1466 32.0466 70.9911 32.0466 70.8437C32.0466 70.68 32.0384 70.5245 32.0221 70.3771C32.0057 70.1807 31.9975 69.9351 31.9975 69.6404C31.9975 69.3293 32.0139 69.0264 32.0466 68.7317C32.0957 68.4207 32.1694 68.1341 32.2676 67.8722C32.3659 67.5939 32.505 67.381 32.6851 67.2337C32.9307 67.0372 33.1763 66.9308 33.4219 66.9144C33.6838 66.8817 33.9212 66.9144 34.1341 67.0127C34.3633 67.1109 34.5515 67.2582 34.6989 67.4547C34.8626 67.6348 34.9772 67.8394 35.0427 68.0687C35.0918 68.2651 35.1327 68.5025 35.1655 68.7808C35.1982 69.0428 35.2146 69.3211 35.2146 69.6158C35.231 69.9105 35.2392 70.2052 35.2392 70.4999C35.2392 70.7946 35.2392 71.0647 35.2392 71.3103H35.4847C35.7303 71.3103 36.0168 71.3021 36.3443 71.2858C36.6717 71.2694 36.991 71.2776 37.3021 71.3103C37.6295 71.3431 37.9242 71.4249 38.1861 71.5559C38.4481 71.6705 38.6446 71.8752 38.7755 72.1699ZM46.1606 73.6925C46.1606 74.1509 46.1606 74.6666 46.1606 75.2396C46.177 75.8127 46.1852 76.4102 46.1852 77.0324C46.1852 77.6381 46.1852 78.2439 46.1852 78.8497C46.1852 79.4391 46.177 79.9875 46.1606 80.4951C46.1443 80.7407 46.1197 81.0108 46.087 81.3055C46.0542 81.5838 45.9887 81.8458 45.8905 82.0913C45.7923 82.3369 45.6367 82.5416 45.4239 82.7053C45.2274 82.8527 44.9573 82.9181 44.6135 82.9018C44.1059 82.869 43.7376 82.648 43.5084 82.2387C43.2955 81.8294 43.1727 81.2564 43.14 80.5196C43.14 80.1431 43.1318 79.7092 43.1154 79.218C43.1154 78.7269 43.1072 78.2275 43.0909 77.72C43.0909 77.2125 43.0909 76.7213 43.0909 76.2465C43.0909 75.7553 43.0909 75.3133 43.0909 74.9204C43.0909 74.6912 43.0827 74.4128 43.0663 74.0854C43.0663 73.758 43.0745 73.4223 43.0909 73.0785C43.1072 72.7347 43.1482 72.4073 43.2137 72.0962C43.2791 71.7687 43.3856 71.4986 43.5329 71.2858C43.6475 71.1548 43.8112 71.0566 44.0241 70.9911C44.2369 70.9092 44.4579 70.8683 44.6871 70.8683C44.9327 70.8683 45.1619 70.9092 45.3748 70.9911C45.604 71.0729 45.7677 71.1875 45.8659 71.3349C45.9314 71.4331 45.9805 71.5723 46.0133 71.7524C46.046 71.9325 46.0706 72.1371 46.087 72.3663C46.1197 72.5792 46.1361 72.8084 46.1361 73.054C46.1524 73.2832 46.1606 73.496 46.1606 73.6925ZM45.2274 68.7317C44.7199 68.8627 44.2942 68.8136 43.9504 68.5844C43.623 68.3388 43.4183 67.9786 43.3364 67.5038C43.271 67.16 43.2955 66.8571 43.4101 66.5952C43.5247 66.3332 43.6966 66.1367 43.9258 66.0058C44.155 65.8584 44.417 65.7929 44.7117 65.8093C45.0064 65.8257 45.3011 65.9403 45.5958 66.1531C45.8741 66.3496 46.0706 66.5788 46.1852 66.8407C46.3162 67.1027 46.3571 67.3565 46.308 67.602C46.2752 67.8476 46.1688 68.0768 45.9887 68.2897C45.8086 68.4861 45.5549 68.6335 45.2274 68.7317ZM59.6643 73.5451C59.7953 73.7743 59.8608 74.0199 59.8608 74.2819C59.8772 74.5438 59.8199 74.7894 59.6889 75.0186C59.5416 75.3133 59.3287 75.518 59.0504 75.6326C58.7884 75.7308 58.4937 75.739 58.1663 75.6571C58.0189 75.6244 57.888 75.5671 57.7734 75.4852C57.6588 75.4033 57.536 75.3215 57.405 75.2396C57.2904 75.1414 57.1512 75.0513 56.9875 74.9695C56.8402 74.8876 56.6437 74.8303 56.3981 74.7976C56.1525 74.7648 55.8824 74.7648 55.5877 74.7976C55.3094 74.8303 55.0556 74.8958 54.8264 74.994C54.4662 75.1741 54.1797 75.4525 53.9669 75.829C53.754 76.1892 53.6149 76.5821 53.5494 77.0078C53.4839 77.4171 53.4921 77.8346 53.5739 78.2603C53.6722 78.686 53.8523 79.0461 54.1142 79.3408C54.3107 79.57 54.5644 79.7583 54.8755 79.9057C55.2029 80.053 55.514 80.1431 55.8087 80.1758C56.087 80.2086 56.3654 80.2086 56.6437 80.1758C56.922 80.1267 57.1922 80.0612 57.4541 79.9793C57.6506 79.8975 57.8716 79.7911 58.1172 79.6601C58.3628 79.5127 58.6002 79.4227 58.8294 79.39C59.1241 79.39 59.3533 79.4718 59.517 79.6355C59.6807 79.7829 59.7953 79.9712 59.8608 80.2004C59.9263 80.4132 59.9345 80.6424 59.8854 80.888C59.8526 81.1336 59.7626 81.3464 59.6152 81.5265C59.4188 81.7721 59.1404 82.0095 58.7803 82.2387C58.4201 82.4515 58.0762 82.6071 57.7488 82.7053C57.3559 82.8363 56.9138 82.91 56.4227 82.9263C55.9479 82.9427 55.4976 82.9263 55.072 82.8772C54.8755 82.8445 54.6709 82.8035 54.458 82.7544C54.2452 82.7053 54.0405 82.648 53.8441 82.5825C53.1237 82.3206 52.5179 81.9522 52.0268 81.4774C51.552 80.9862 51.1836 80.4378 50.9216 79.832C50.6761 79.2262 50.5369 78.5795 50.5042 77.8919C50.4714 77.2043 50.5533 76.5248 50.7497 75.8536C50.9298 75.2151 51.1509 74.6748 51.4128 74.2327C51.6911 73.7907 52.0104 73.4305 52.3706 73.1522C52.7471 72.8575 53.1646 72.6283 53.623 72.4646C54.0815 72.2845 54.589 72.1289 55.1456 71.998C55.7187 71.8834 56.3244 71.8834 56.9629 71.998C57.6015 72.1126 58.1745 72.3254 58.682 72.6365C59.0749 72.8493 59.4024 73.1522 59.6643 73.5451ZM68.9698 77.3516C69.33 77.7282 69.5919 78.0065 69.7556 78.1866C69.9357 78.3503 70.0585 78.4731 70.124 78.555C70.2059 78.6368 70.2632 78.686 70.2959 78.7023C70.3287 78.7187 70.386 78.7678 70.4678 78.8497C70.5497 78.9315 70.6807 79.0625 70.8607 79.2426C71.0408 79.4063 71.311 79.6765 71.6712 80.053C71.9659 80.3477 72.2033 80.6915 72.3833 81.0845C72.5798 81.461 72.5634 81.8703 72.3342 82.3124C72.2033 82.5416 72.0559 82.7053 71.8922 82.8035C71.7285 82.8854 71.5484 82.9181 71.3519 82.9018C71.1718 82.8854 70.9753 82.8281 70.7625 82.7299C70.566 82.6316 70.3696 82.5088 70.1731 82.3615C69.7966 82.0832 69.4364 81.7639 69.0926 81.4037C68.7487 81.0272 68.4704 80.7407 68.2576 80.5442C68.1102 80.3968 68.0202 80.2986 67.9874 80.2495C67.9547 80.2167 67.922 80.1922 67.8892 80.1758C67.8565 80.1431 67.8237 80.1103 67.791 80.0776C67.6764 79.963 67.5536 79.8484 67.4226 79.7338C67.2916 79.6192 67.1607 79.4964 67.0297 79.3654V80.3232C67.0297 80.5033 67.0379 80.6342 67.0542 80.7161C67.0542 80.8798 67.046 81.0026 67.0297 81.0845C66.9806 81.2646 66.956 81.4365 66.956 81.6002C66.9396 81.682 66.9233 81.7639 66.9069 81.8458C66.8905 81.9113 66.866 81.9849 66.8332 82.0668C66.8168 82.0995 66.8005 82.1241 66.7841 82.1405C66.7841 82.1568 66.7841 82.1814 66.7841 82.2141C66.7677 82.2469 66.7513 82.2714 66.735 82.2878C66.735 82.3042 66.7268 82.3287 66.7104 82.3615C66.6286 82.5252 66.4976 82.6807 66.3175 82.8281C66.0064 83.0082 65.6217 83.0573 65.1633 82.9754C64.9177 82.9263 64.7294 82.8363 64.5984 82.7053C64.4511 82.6071 64.3528 82.4679 64.3037 82.2878C64.271 82.206 64.2382 82.1241 64.2055 82.0422C64.1891 81.944 64.1646 81.854 64.1318 81.7721C64.0991 81.6902 64.0827 81.6166 64.0827 81.5511C64.0827 81.4692 64.0827 81.4037 64.0827 81.3546V67.381C64.0827 67.2828 64.0827 67.1846 64.0827 67.0863C64.0827 66.9881 64.0909 66.8899 64.1073 66.7916C64.1236 66.6934 64.14 66.6034 64.1564 66.5215C64.1891 66.4233 64.2219 66.3332 64.2546 66.2514C64.3201 66.0876 64.402 65.9567 64.5002 65.8584C64.582 65.7766 64.6639 65.7193 64.7458 65.6865C64.844 65.6374 64.934 65.5965 65.0159 65.5637C65.0978 65.5474 65.1878 65.5392 65.286 65.5392C65.4007 65.5228 65.5071 65.5146 65.6053 65.5146C65.8345 65.5146 66.0637 65.5801 66.2929 65.7111C66.5058 65.8584 66.6613 66.0467 66.7595 66.2759C66.8905 66.587 66.956 66.8899 66.956 67.1846C66.9724 67.3483 66.9887 67.602 67.0051 67.9459C67.0215 68.2733 67.0297 68.5189 67.0297 68.6826V68.7808C67.046 69.3211 67.0542 69.8368 67.0542 70.328C67.0542 70.8192 67.0542 71.3513 67.0542 71.9243C67.0379 72.4973 67.0297 73.0458 67.0297 73.5697C67.0297 74.0772 67.0297 74.5847 67.0297 75.0923V75.3624C67.1607 75.2314 67.2916 75.1087 67.4226 74.994C67.5536 74.8794 67.6764 74.7567 67.791 74.6257C67.8565 74.5766 67.922 74.5193 67.9874 74.4538L68.2576 74.1836C68.4704 73.9708 68.7487 73.6843 69.0926 73.3241C69.4364 72.9475 69.7966 72.6201 70.1731 72.3418C70.5824 72.0471 70.9753 71.867 71.3519 71.8015C71.7448 71.736 72.0723 71.9325 72.3342 72.3909C72.5634 72.8329 72.5798 73.2504 72.3833 73.6433C72.2033 74.0199 71.9659 74.3719 71.6712 74.6993C71.311 75.0759 71.0408 75.3542 70.8607 75.5343C70.6807 75.698 70.5497 75.8208 70.4678 75.9027C70.386 75.9682 70.3287 76.0091 70.2959 76.0255C70.2632 76.0419 70.2059 76.091 70.124 76.1728C70.0585 76.2383 69.9357 76.3611 69.7556 76.5412C69.5919 76.7049 69.33 76.9751 68.9698 77.3516ZM85.1985 79.6355C85.3949 79.5864 85.5914 79.5537 85.7879 79.5373C86.0007 79.5209 86.189 79.5455 86.3527 79.611C86.5328 79.6765 86.6801 79.7911 86.7948 79.9548C86.9094 80.1021 86.9667 80.315 86.9667 80.5933C86.9667 80.7898 86.9175 80.978 86.8193 81.1581C86.7211 81.3382 86.5983 81.502 86.4509 81.6493C86.3036 81.7967 86.1399 81.9276 85.9598 82.0422C85.7797 82.1405 85.6078 82.2223 85.4441 82.2878C84.9693 82.5007 84.4208 82.6644 83.7987 82.779C83.1929 82.8936 82.5626 82.9345 81.9077 82.9018C81.0236 82.869 80.1722 82.6971 79.3536 82.386C78.5514 82.0586 77.9211 81.5265 77.4627 80.7898C77.037 80.0694 76.7832 79.2672 76.7014 78.3831C76.6195 77.499 76.6604 76.664 76.8241 75.8781C77.0042 74.9286 77.3071 74.1591 77.7328 73.5697C78.1748 72.9639 78.6988 72.4809 79.3045 72.1207C80.0413 71.6951 80.8681 71.474 81.7849 71.4577C82.7017 71.4413 83.5776 71.6214 84.4126 71.998C84.9693 72.2435 85.4686 72.5792 85.9107 73.0048C86.3527 73.4141 86.6883 73.9135 86.9175 74.5029C86.983 74.6502 87.0321 74.8303 87.0649 75.0432C87.114 75.256 87.1468 75.4852 87.1631 75.7308C87.1795 75.96 87.1795 76.1892 87.1631 76.4184C87.1468 76.6476 87.1058 76.8523 87.0403 77.0324C86.9421 77.3271 86.8193 77.5563 86.672 77.72C86.5246 77.8837 86.3363 78.0065 86.1071 78.0884C85.8779 78.1702 85.5996 78.2275 85.2721 78.2603C84.9611 78.2767 84.5845 78.293 84.1425 78.3094C83.7495 78.3258 83.3812 78.334 83.0374 78.334C82.6935 78.334 82.3415 78.334 81.9814 78.334C81.6212 78.3176 81.2446 78.3094 80.8517 78.3094C80.4751 78.293 80.0495 78.2767 79.5747 78.2603C79.5255 78.5877 79.5665 78.8742 79.6975 79.1198C79.8448 79.349 80.0413 79.5455 80.2868 79.7092C80.5324 79.8566 80.8108 79.9712 81.1218 80.053C81.4329 80.1349 81.7358 80.184 82.0305 80.2004C82.5871 80.2331 83.1192 80.1922 83.6268 80.0776C84.1343 79.9466 84.6582 79.7993 85.1985 79.6355ZM84.1425 74.8713C83.8314 74.5111 83.504 74.2491 83.1601 74.0854C82.8982 73.9708 82.6199 73.9217 82.3252 73.938C82.0468 73.938 81.7767 73.979 81.5148 74.0608C81.04 74.1754 80.6388 74.421 80.3114 74.7976C80.2787 74.8303 80.2214 74.9122 80.1395 75.0432C80.0576 75.1578 79.9758 75.2806 79.8939 75.4115C79.8284 75.5425 79.7793 75.6653 79.7466 75.7799C79.7138 75.8945 79.7302 75.9518 79.7957 75.9518H84.6091C84.5927 75.7226 84.5518 75.5343 84.4863 75.387C84.4208 75.2233 84.3062 75.0513 84.1425 74.8713ZM91.3831 74.3064C91.3831 74.11 91.3831 73.8889 91.3831 73.6433C91.3831 73.3814 91.3913 73.1194 91.4077 72.8575C91.424 72.5792 91.4486 72.3172 91.4813 72.0716C91.5304 71.8097 91.5959 71.5805 91.6778 71.384C91.8088 71.0893 92.0134 70.8928 92.2917 70.7946C92.5701 70.68 92.873 70.6309 93.2004 70.6473C93.5442 70.6473 93.8144 70.7046 94.0108 70.8192C94.2073 70.9338 94.3546 71.0893 94.4529 71.2858C94.5511 71.4659 94.6084 71.6787 94.6248 71.9243C94.6575 72.1535 94.6739 72.3991 94.6739 72.661C94.8212 72.3991 95.0177 72.1862 95.2633 72.0225C95.5252 71.8588 95.7872 71.7278 96.0491 71.6296C96.3111 71.5314 96.5485 71.4659 96.7613 71.4331C96.9742 71.384 97.097 71.3594 97.1297 71.3594C97.539 71.3267 97.9074 71.3185 98.2348 71.3349C98.5786 71.3513 98.9552 71.4249 99.3645 71.5559C99.6264 71.6541 99.8966 71.7933 100.175 71.9734C100.453 72.1371 100.699 72.3336 100.912 72.5628C101.124 72.792 101.264 73.0458 101.329 73.3241C101.411 73.586 101.378 73.8644 101.231 74.1591C101.002 74.5684 100.748 74.773 100.47 74.773C100.191 74.7567 99.8884 74.7075 99.561 74.6257C99.3809 74.5929 99.168 74.5193 98.9224 74.4047C98.6769 74.29 98.464 74.2164 98.2839 74.1836C97.7273 74.1018 97.2361 74.1427 96.8104 74.3064C96.3848 74.4701 96.0164 74.6666 95.7053 74.8958C95.3451 75.1741 95.0341 75.4934 94.7721 75.8536V79.39C94.7721 79.832 94.7639 80.2904 94.7476 80.7652C94.7476 81.24 94.6821 81.6739 94.5511 82.0668C94.4365 82.4433 94.2318 82.7544 93.9371 83C93.6588 83.2292 93.2495 83.3274 92.7092 83.2947C92.4145 83.2783 92.1526 83.1392 91.9234 82.8772C91.6942 82.5989 91.555 82.3287 91.5059 82.0668C91.4731 81.8212 91.4486 81.5265 91.4322 81.1827C91.4158 80.8389 91.3995 80.4787 91.3831 80.1021C91.3831 79.7256 91.3831 79.349 91.3831 78.9725C91.3831 78.5795 91.3831 78.2193 91.3831 77.8919V74.3064Z" fill="white"/>
</g>
<g filter="url(#filter1_d_62_54)">
<rect x="30" y="15" width="52.92" height="42" rx="21" fill="white"/>
</g>
<line x1="56.5" y1="25.5" x2="56.5" y2="45.5" stroke="#494949" stroke-width="9" stroke-linecap="round"/>
<line x1="46.4999" y1="35.5" x2="66.4999" y2="35.5" stroke="#494949" stroke-width="9" stroke-linecap="round"/>
<defs>
<filter id="filter0_d_62_54" x="0.633465" y="50.1658" width="116.167" height="48.5269" filterUnits="userSpaceOnUse" color-interpolation-filters="sRGB">
<feFlood flood-opacity="0" result="BackgroundImageFix"/>
<feColorMatrix in="SourceAlpha" type="matrix" values="0 0 0 0 0 0 0 0 0 0 0 0 0 0 0 0 0 0 127 0" result="hardAlpha"/>
<feOffset/>
<feGaussianBlur stdDeviation="7.67442"/>
<feComposite in2="hardAlpha" operator="out"/>
<feColorMatrix type="matrix" values="0 0 0 0 0 0 0 0 0 0 0 0 0 0 0 0 0 0 0.25 0"/>
<feBlend mode="normal" in2="BackgroundImageFix" result="effect1_dropShadow_62_54"/>
<feBlend mode="normal" in="SourceGraphic" in2="effect1_dropShadow_62_54" result="shape"/>
</filter>
<filter id="filter1_d_62_54" x="15" y="0" width="82.92" height="72" filterUnits="userSpaceOnUse" color-interpolation-filters="sRGB">
<feFlood flood-opacity="0" result="BackgroundImageFix"/>
<feColorMatrix in="SourceAlpha" type="matrix" values="0 0 0 0 0 0 0 0 0 0 0 0 0 0 0 0 0 0 127 0" result="hardAlpha"/>
<feOffset/>
<feGaussianBlur stdDeviation="7.5"/>
<feComposite in2="hardAlpha" operator="out"/>
<feColorMatrix type="matrix" values="0 0 0 0 0 0 0 0 0 0 0 0 0 0 0 0 0 0 0.25 0"/>
<feBlend mode="normal" in2="BackgroundImageFix" result="effect1_dropShadow_62_54"/>
<feBlend mode="normal" in="SourceGraphic" in2="effect1_dropShadow_62_54" result="shape"/>
</filter>
</defs>
</svg>
