<svg width="83" height="60" viewBox="0 0 83 72" fill="none" xmlns="http://www.w3.org/2000/svg">
<g filter="url(#filter0_d_59_46)">
<rect x="15" y="15" width="52.92" height="42" rx="21" fill="white"/>
</g>
<path d="M35 25C35 24.7348 34.8946 24.4804 34.7071 24.2929C34.5196 24.1054 34.2652 24 34 24C33.7348 24 33.4804 24.1054 33.2929 24.2929C33.1054 24.4804 33 24.7348 33 25V27C33 27.2652 33.1054 27.5196 33.2929 27.7071C33.4804 27.8946 33.7348 28 34 28C34.2652 28 34.5196 27.8946 34.7071 27.7071C34.8946 27.5196 35 27.2652 35 27V25ZM41 36C41 37.8565 40.2625 39.637 38.9497 40.9497C37.637 42.2625 35.8565 43 34 43C32.1435 43 30.363 42.2625 29.0503 40.9497C27.7375 39.637 27 37.8565 27 36C27 34.1435 27.7375 32.363 29.0503 31.0503C30.363 29.7375 32.1435 29 34 29C35.8565 29 37.637 29.7375 38.9497 31.0503C40.2625 32.363 41 34.1435 41 36V36ZM39 36C39 34.6739 38.4732 33.4021 37.5355 32.4645C36.5979 31.5268 35.3261 31 34 31V41C35.3261 41 36.5979 40.4732 37.5355 39.5355C38.4732 38.5979 39 37.3261 39 36ZM46 36C46 36.2652 45.8946 36.5196 45.7071 36.7071C45.5196 36.8946 45.2652 37 45 37H43C42.7348 37 42.4804 36.8946 42.2929 36.7071C42.1054 36.5196 42 36.2652 42 36C42 35.7348 42.1054 35.4804 42.2929 35.2929C42.4804 35.1054 42.7348 35 43 35H45C45.2652 35 45.5196 35.1054 45.7071 35.2929C45.8946 35.4804 46 35.7348 46 36ZM35 45C35 44.7348 34.8946 44.4804 34.7071 44.2929C34.5196 44.1054 34.2652 44 34 44C33.7348 44 33.4804 44.1054 33.2929 44.2929C33.1054 44.4804 33 44.7348 33 45V47C33 47.2652 33.1054 47.5196 33.2929 47.7071C33.4804 47.8946 33.7348 48 34 48C34.2652 48 34.5196 47.8946 34.7071 47.7071C34.8946 47.5196 35 47.2652 35 47V45ZM26 36C26 36.2652 25.8946 36.5196 25.7071 36.7071C25.5196 36.8946 25.2652 37 25 37H23C22.7348 37 22.4804 36.8946 22.2929 36.7071C22.1054 36.5196 22 36.2652 22 36C22 35.7348 22.1054 35.4804 22.2929 35.2929C22.4804 35.1054 22.7348 35 23 35H25C25.2652 35 25.5196 35.1054 25.7071 35.2929C25.8946 35.4804 26 35.7348 26 36ZM26.707 27.293C26.5184 27.1108 26.2658 27.01 26.0036 27.0123C25.7414 27.0146 25.4906 27.1198 25.3052 27.3052C25.1198 27.4906 25.0146 27.7414 25.0123 28.0036C25.01 28.2658 25.1108 28.5184 25.293 28.707L26.293 29.707C26.4816 29.8892 26.7342 29.99 26.9964 29.9877C27.2586 29.9854 27.5094 29.8802 27.6948 29.6948C27.8802 29.5094 27.9854 29.2586 27.9877 28.9964C27.99 28.7342 27.8892 28.4816 27.707 28.293L26.707 27.293ZM25.293 44.707C25.4805 44.8945 25.7348 44.9998 26 44.9998C26.2652 44.9998 26.5195 44.8945 26.707 44.707L27.707 43.707C27.8025 43.6148 27.8787 43.5044 27.9311 43.3824C27.9835 43.2604 28.0111 43.1292 28.0123 42.9964C28.0134 42.8636 27.9881 42.7319 27.9378 42.609C27.8875 42.4862 27.8133 42.3745 27.7194 42.2806C27.6255 42.1867 27.5139 42.1125 27.391 42.0622C27.2681 42.0119 27.1364 41.9866 27.0036 41.9877C26.8708 41.9889 26.7396 42.0165 26.6176 42.0689C26.4956 42.1213 26.3852 42.1975 26.293 42.293L25.293 43.293C25.1055 43.4805 25.0002 43.7348 25.0002 44C25.0002 44.2652 25.1055 44.5195 25.293 44.707V44.707ZM41.293 27.293C41.4816 27.1108 41.7342 27.01 41.9964 27.0123C42.2586 27.0146 42.5094 27.1198 42.6948 27.3052C42.8802 27.4906 42.9854 27.7414 42.9877 28.0036C42.99 28.2658 42.8892 28.5184 42.707 28.707L41.707 29.707C41.5184 29.8892 41.2658 29.99 41.0036 29.9877C40.7414 29.9854 40.4906 29.8802 40.3052 29.6948C40.1198 29.5094 40.0146 29.2586 40.0123 28.9964C40.01 28.7342 40.1108 28.4816 40.293 28.293L41.293 27.293ZM41.293 44.707L40.293 43.707C40.1108 43.5184 40.01 43.2658 40.0123 43.0036C40.0146 42.7414 40.1198 42.4906 40.3052 42.3052C40.4906 42.1198 40.7414 42.0146 41.0036 42.0123C41.2658 42.01 41.5184 42.1108 41.707 42.293L42.707 43.293C42.8892 43.4816 42.99 43.7342 42.9877 43.9964C42.9854 44.2586 42.8802 44.5094 42.6948 44.6948C42.5094 44.8802 42.2586 44.9854 41.9964 44.9877C41.7342 44.99 41.4816 44.8892 41.293 44.707Z" fill="#494949"/>
<line x1="51.5" y1="36.5" x2="59.5" y2="36.5" stroke="#494949" stroke-width="3" stroke-linecap="round"/>
<line x1="55.5" y1="32.5" x2="55.5" y2="40.5" stroke="#494949" stroke-width="3" stroke-linecap="round"/>
<defs>
<filter id="filter0_d_59_46" x="0" y="0" width="82.92" height="72" filterUnits="userSpaceOnUse" color-interpolation-filters="sRGB">
<feFlood flood-opacity="0" result="BackgroundImageFix"/>
<feColorMatrix in="SourceAlpha" type="matrix" values="0 0 0 0 0 0 0 0 0 0 0 0 0 0 0 0 0 0 127 0" result="hardAlpha"/>
<feOffset/>
<feGaussianBlur stdDeviation="7.5"/>
<feComposite in2="hardAlpha" operator="out"/>
<feColorMatrix type="matrix" values="0 0 0 0 0 0 0 0 0 0 0 0 0 0 0 0 0 0 0.25 0"/>
<feBlend mode="normal" in2="BackgroundImageFix" result="effect1_dropShadow_59_46"/>
<feBlend mode="normal" in="SourceGraphic" in2="effect1_dropShadow_59_46" result="shape"/>
</filter>
</defs>
</svg>
