<svg width="83" height="60" viewBox="0 0 83 72" fill="none" xmlns="http://www.w3.org/2000/svg">
<g filter="url(#filter0_d_77_26)">
<rect x="15" y="15" width="52.92" height="42" rx="21" fill="white"/>
</g>
<path d="M33.62 34.875C33.7976 33.6771 34.272 32.5427 35 31.575L29.645 26.235C27.5268 28.6446 26.2478 31.6764 26 34.875H33.62ZM36.575 30C37.5442 29.2773 38.6785 28.8081 39.875 28.635V21C36.6764 21.2478 33.6446 22.5268 31.235 24.645L36.575 30ZM42.125 21V28.5C43.3605 28.7007 44.5231 29.2174 45.5 30L50.84 24.66C48.4124 22.5215 45.3516 21.236 42.125 21V21ZM35 40.5C34.2773 39.5308 33.8081 38.3965 33.635 37.2H26C26.2309 40.3915 27.4886 43.4225 29.585 45.84L35 40.5ZM39.875 43.38C38.6771 43.2024 37.5427 42.728 36.575 42L31.235 47.355C33.6446 49.4732 36.6764 50.7522 39.875 51V43.38ZM47 31.575C47.7227 32.5442 48.1919 33.6785 48.365 34.875H55.865C55.6341 31.6835 54.3764 28.6525 52.28 26.235L47 31.575ZM45.5 42C44.5308 42.7227 43.3965 43.1919 42.2 43.365V50.865C45.3915 50.6341 48.4225 49.3764 50.84 47.28L45.5 42ZM48.38 37.125C48.2146 38.3491 47.7396 39.5107 47 40.5L52.34 45.84C54.4785 43.4124 55.764 40.3516 56 37.125H48.38Z" fill="#494949"/>
<defs>
<filter id="filter0_d_77_26" x="0" y="0" width="82.92" height="72" filterUnits="userSpaceOnUse" color-interpolation-filters="sRGB">
<feFlood flood-opacity="0" result="BackgroundImageFix"/>
<feColorMatrix in="SourceAlpha" type="matrix" values="0 0 0 0 0 0 0 0 0 0 0 0 0 0 0 0 0 0 127 0" result="hardAlpha"/>
<feOffset/>
<feGaussianBlur stdDeviation="7.5"/>
<feComposite in2="hardAlpha" operator="out"/>
<feColorMatrix type="matrix" values="0 0 0 0 0 0 0 0 0 0 0 0 0 0 0 0 0 0 0.25 0"/>
<feBlend mode="normal" in2="BackgroundImageFix" result="effect1_dropShadow_77_26"/>
<feBlend mode="normal" in="SourceGraphic" in2="effect1_dropShadow_77_26" result="shape"/>
</filter>
</defs>
</svg>
