<svg width="83" height="60" viewBox="0 0 83 72" fill="none" xmlns="http://www.w3.org/2000/svg">
<g filter="url(#filter0_d_59_49)">
<rect x="15" y="15" width="52.92" height="42" rx="21" fill="white"/>
</g>
<line x1="51.5" y1="36.5" x2="59.5" y2="36.5" stroke="#494949" stroke-width="3" stroke-linecap="round"/>
<path d="M34 26C31.2396 26 28.8828 26.9766 26.9297 28.9297C24.9766 30.8828 24 33.2396 24 36C24 38.7604 24.9766 41.1172 26.9297 43.0703C28.8828 45.0234 31.2396 46 34 46C36.7604 46 39.1172 45.0234 41.0703 43.0703C43.0234 41.1172 44 38.7604 44 36C44 33.2396 43.0234 30.8828 41.0703 28.9297C39.1172 26.9766 36.7604 26 34 26ZM34 44.3203C31.7083 44.3203 29.7487 43.5065 28.1211 41.8789C26.4935 40.2513 25.6797 38.2917 25.6797 36C25.6797 33.7083 26.4935 31.7487 28.1211 30.1211C29.7487 28.4935 31.7083 27.6797 34 27.6797V44.3203Z" fill="#494949"/>
<defs>
<filter id="filter0_d_59_49" x="0" y="0" width="82.92" height="72" filterUnits="userSpaceOnUse" color-interpolation-filters="sRGB">
<feFlood flood-opacity="0" result="BackgroundImageFix"/>
<feColorMatrix in="SourceAlpha" type="matrix" values="0 0 0 0 0 0 0 0 0 0 0 0 0 0 0 0 0 0 127 0" result="hardAlpha"/>
<feOffset/>
<feGaussianBlur stdDeviation="7.5"/>
<feComposite in2="hardAlpha" operator="out"/>
<feColorMatrix type="matrix" values="0 0 0 0 0 0 0 0 0 0 0 0 0 0 0 0 0 0 0.25 0"/>
<feBlend mode="normal" in2="BackgroundImageFix" result="effect1_dropShadow_59_49"/>
<feBlend mode="normal" in="SourceGraphic" in2="effect1_dropShadow_59_49" result="shape"/>
</filter>
</defs>
</svg>
