<svg width="83" height="60" viewBox="0 0 83 72" fill="none" xmlns="http://www.w3.org/2000/svg">
<g filter="url(#filter0_d_78_27)">
<rect x="15" y="15" width="52.92" height="42" rx="21" fill="white"/>
</g>
<path d="M37.8 27.4H43.2C43.2 26.6839 42.9155 25.9972 42.4092 25.4908C41.9028 24.9845 41.2161 24.7 40.5 24.7C39.7839 24.7 39.0972 24.9845 38.5908 25.4908C38.0845 25.9972 37.8 26.6839 37.8 27.4ZM35.1 27.4C35.1 25.9678 35.6689 24.5943 36.6816 23.5816C37.6943 22.5689 39.0678 22 40.5 22C41.9322 22 43.3057 22.5689 44.3184 23.5816C45.3311 24.5943 45.9 25.9678 45.9 27.4H52.65C53.008 27.4 53.3514 27.5422 53.6046 27.7954C53.8578 28.0486 54 28.392 54 28.75C54 29.108 53.8578 29.4514 53.6046 29.7046C53.3514 29.9578 53.008 30.1 52.65 30.1H51.4593L50.2632 44.059C50.1482 45.4069 49.5315 46.6626 48.535 47.5776C47.5385 48.4925 46.2349 49.0002 44.8821 49H36.1179C34.7651 49.0002 33.4615 48.4925 32.465 47.5776C31.4685 46.6626 30.8518 45.4069 30.7368 44.059L29.5407 30.1H28.35C27.992 30.1 27.6486 29.9578 27.3954 29.7046C27.1422 29.4514 27 29.108 27 28.75C27 28.392 27.1422 28.0486 27.3954 27.7954C27.6486 27.5422 27.992 27.4 28.35 27.4H35.1ZM44.55 35.5C44.55 35.142 44.4078 34.7986 44.1546 34.5454C43.9014 34.2922 43.558 34.15 43.2 34.15C42.842 34.15 42.4986 34.2922 42.2454 34.5454C41.9922 34.7986 41.85 35.142 41.85 35.5V40.9C41.85 41.258 41.9922 41.6014 42.2454 41.8546C42.4986 42.1078 42.842 42.25 43.2 42.25C43.558 42.25 43.9014 42.1078 44.1546 41.8546C44.4078 41.6014 44.55 41.258 44.55 40.9V35.5ZM37.8 34.15C37.442 34.15 37.0986 34.2922 36.8454 34.5454C36.5922 34.7986 36.45 35.142 36.45 35.5V40.9C36.45 41.258 36.5922 41.6014 36.8454 41.8546C37.0986 42.1078 37.442 42.25 37.8 42.25C38.158 42.25 38.5014 42.1078 38.7546 41.8546C39.0078 41.6014 39.15 41.258 39.15 40.9V35.5C39.15 35.142 39.0078 34.7986 38.7546 34.5454C38.5014 34.2922 38.158 34.15 37.8 34.15Z" fill="#494949"/>
<defs>
<filter id="filter0_d_78_27" x="0" y="0" width="82.92" height="72" filterUnits="userSpaceOnUse" color-interpolation-filters="sRGB">
<feFlood flood-opacity="0" result="BackgroundImageFix"/>
<feColorMatrix in="SourceAlpha" type="matrix" values="0 0 0 0 0 0 0 0 0 0 0 0 0 0 0 0 0 0 127 0" result="hardAlpha"/>
<feOffset/>
<feGaussianBlur stdDeviation="7.5"/>
<feComposite in2="hardAlpha" operator="out"/>
<feColorMatrix type="matrix" values="0 0 0 0 0 0 0 0 0 0 0 0 0 0 0 0 0 0 0.25 0"/>
<feBlend mode="normal" in2="BackgroundImageFix" result="effect1_dropShadow_78_27"/>
<feBlend mode="normal" in="SourceGraphic" in2="effect1_dropShadow_78_27" result="shape"/>
</filter>
</defs>
</svg>
