<svg width="164" height="78" viewBox="0 0 164 78" fill="none" xmlns="http://www.w3.org/2000/svg">
<g filter="url(#filter0_d_17_19)">
<rect x="16" y="16" width="132" height="32.2326" rx="6.77765" fill="#305216"/>
</g>
<g filter="url(#filter1_d_17_19)">
<path d="M33.6445 22.8339C33.9555 22.752 34.2257 22.7438 34.4549 22.8093C34.7005 22.8584 34.9051 22.9648 35.0688 23.1286C35.2489 23.2923 35.3799 23.4969 35.4618 23.7425C35.56 23.9881 35.6091 24.2582 35.6091 24.5529C35.6255 25.3715 35.6255 26.01 35.6091 26.4685C35.6091 26.9269 35.6091 27.328 35.6091 27.6718V35.2112C35.6091 36.0953 35.6091 36.832 35.6091 37.4214C35.6091 38.0108 35.5764 38.4938 35.5109 38.8703C35.4618 39.2305 35.3635 39.5007 35.2162 39.6807C35.0852 39.8608 34.8806 39.9836 34.6022 40.0491C34.3239 40.131 33.9555 40.1719 33.4971 40.1719C33.0551 40.1719 32.4984 40.1719 31.8272 40.1719C30.059 40.1719 28.6592 39.7544 27.6277 38.9194C26.6127 38.0845 26.0724 36.7583 26.0069 34.941C25.9741 34.1552 26.0724 33.4348 26.3016 32.7799C26.5308 32.125 26.8664 31.5684 27.3085 31.11C27.7669 30.6352 28.3235 30.275 28.9784 30.0294C29.6497 29.7674 30.411 29.6447 31.2623 29.661H32.613V25.2651C32.613 25.0032 32.613 24.7494 32.613 24.5038C32.613 24.2419 32.6376 24.0045 32.6867 23.7916C32.7358 23.5624 32.834 23.366 32.9814 23.2022C33.1287 23.0385 33.3498 22.9157 33.6445 22.8339ZM29.3713 36.4636C29.7152 36.9384 30.3373 37.2004 31.2378 37.2495C31.4179 37.2659 31.5898 37.274 31.7535 37.274C31.9172 37.2577 32.0646 37.2331 32.1955 37.2004C32.3429 37.184 32.482 37.1594 32.613 37.1267V32.5834C32.04 32.4852 31.5161 32.4279 31.0413 32.4115C30.5829 32.3788 30.1245 32.5425 29.666 32.9027C29.4205 33.0992 29.2322 33.3529 29.1012 33.664C28.9702 33.9587 28.8966 34.278 28.8802 34.6218C28.8638 34.9492 28.8966 35.2767 28.9784 35.6041C29.0603 35.9315 29.1913 36.218 29.3713 36.4636ZM42.9681 28.8997C43.5084 28.6378 44.0732 28.4495 44.6626 28.3349C45.252 28.2203 45.8332 28.1957 46.4063 28.2612C46.9956 28.3267 47.5605 28.4822 48.1008 28.7278C48.6574 28.9734 49.165 29.3172 49.6234 29.7593C49.9999 30.1358 50.3274 30.5942 50.6057 31.1345C50.884 31.6584 51.0887 32.1741 51.2196 32.6817C51.498 33.5821 51.5389 34.4908 51.3424 35.4076C51.146 36.3245 50.8103 37.1758 50.3356 37.9617C50.1063 38.3219 49.8198 38.6493 49.476 38.944C49.1486 39.2223 48.7966 39.4515 48.42 39.6316C47.9289 39.8608 47.3968 40.0164 46.8237 40.0982C46.2507 40.1965 45.6941 40.221 45.1538 40.1719C44.1715 40.1228 43.3037 39.8772 42.5506 39.4352C41.8139 38.9931 41.2163 38.4283 40.7579 37.7407C40.3158 37.053 40.0211 36.2753 39.8738 35.4076C39.7428 34.5235 39.8001 33.6231 40.0457 32.7062C40.3076 31.7239 40.6842 30.9299 41.1754 30.3241C41.6829 29.702 42.2805 29.2272 42.9681 28.8997ZM43.7049 32.1905C43.4593 32.4197 43.271 32.7062 43.14 33.05C43.009 33.3939 42.9272 33.754 42.8944 34.1306C42.8617 34.4908 42.8863 34.8592 42.9681 35.2357C43.0663 35.5959 43.2137 35.9233 43.4102 36.218C43.5739 36.4636 43.8686 36.6683 44.2943 36.832C44.7199 36.9957 45.162 37.094 45.6204 37.1267C46.1443 37.1594 46.6027 37.0203 46.9956 36.7092C47.3886 36.3818 47.6833 35.9807 47.8797 35.5059C48.0926 35.0311 48.1908 34.5153 48.1744 33.9587C48.1581 33.402 48.0107 32.8945 47.7324 32.4361C47.5359 32.1087 47.2576 31.8713 46.8974 31.7239C46.5536 31.5602 46.1852 31.4783 45.7923 31.4783C45.4157 31.462 45.0392 31.5193 44.6626 31.6502C44.2861 31.7648 43.9668 31.9449 43.7049 32.1905ZM69.9498 28.9488C70.0972 29.1617 70.1463 29.4973 70.0972 29.9557C70.0644 30.3978 69.9826 30.8807 69.8516 31.4047C69.7206 31.9122 69.5651 32.4197 69.385 32.9273C69.2049 33.4184 69.0576 33.8277 68.9429 34.1552C68.6646 34.9083 68.419 35.6123 68.2062 36.2672C67.9934 36.922 67.7396 37.6424 67.4449 38.4283C67.3467 38.6575 67.2484 38.8867 67.1502 39.1159C67.0683 39.3451 66.9619 39.5498 66.8309 39.7299C66.7163 39.91 66.569 40.0573 66.3889 40.1719C66.2252 40.2865 66.0205 40.3438 65.7749 40.3438C65.4966 40.3438 65.251 40.2456 65.0382 40.0491C64.8417 39.8527 64.6698 39.6071 64.5225 39.3124C64.3915 39.0177 64.2769 38.7066 64.1787 38.3792C64.0804 38.0517 63.9986 37.7652 63.9331 37.5196C63.7203 36.7993 63.532 36.1444 63.3683 35.555C63.2045 34.9492 63.0572 34.4089 62.9262 33.9341C62.7789 34.4089 62.6315 34.9247 62.4842 35.4813C62.3368 36.038 62.1485 36.6683 61.9193 37.3723C61.8538 37.6179 61.772 37.9207 61.6737 38.2809C61.5755 38.6247 61.4527 38.9522 61.3054 39.2633C61.1744 39.5743 61.0025 39.8363 60.7896 40.0491C60.5932 40.2783 60.3558 40.3766 60.0775 40.3438C59.6845 40.3274 59.3407 40.1719 59.046 39.8772C58.7677 39.5661 58.5221 39.1978 58.3093 38.7721C58.1128 38.3464 57.9409 37.9044 57.7936 37.446C57.6462 36.9875 57.5234 36.5864 57.4252 36.2426C57.2942 35.8006 57.1387 35.3094 56.9586 34.7691C56.7785 34.2288 56.5984 33.6804 56.4183 33.1237C56.2546 32.5507 56.099 31.9859 55.9517 31.4292C55.8043 30.8562 55.7061 30.3323 55.657 29.8575C55.6243 29.5464 55.6816 29.2599 55.8289 28.998C55.9926 28.736 56.1973 28.5559 56.4429 28.4577C56.7048 28.3431 56.9831 28.3185 57.2778 28.384C57.5889 28.4495 57.8672 28.646 58.1128 28.9734C58.2438 29.1371 58.3584 29.3418 58.4566 29.5873C58.5712 29.8329 58.6695 30.1031 58.7513 30.3978C58.8332 30.6761 58.915 30.9626 58.9969 31.2573C59.0788 31.552 59.1606 31.8385 59.2425 32.1168C59.4226 32.739 59.5699 33.2301 59.6845 33.5903C59.8155 33.9341 59.9465 34.2943 60.0775 34.6709C60.1921 34.2943 60.3067 33.9341 60.4213 33.5903C60.5523 33.2301 60.7078 32.739 60.8879 32.1168C60.9534 31.9204 61.027 31.6993 61.1089 31.4538C61.2071 31.1918 61.3054 30.9462 61.4036 30.717C61.5182 30.4878 61.641 30.275 61.772 30.0785C61.9193 29.8657 62.0749 29.7101 62.2386 29.6119C62.5988 29.3663 62.9262 29.309 63.2209 29.44C63.5156 29.5546 63.7694 29.7593 63.9822 30.054C64.195 30.3487 64.3751 30.6925 64.5225 31.0854C64.6862 31.462 64.8172 31.8058 64.9154 32.1168C65.0136 32.4443 65.1037 32.7308 65.1856 32.9764C65.2674 33.2056 65.3411 33.4184 65.4066 33.6149C65.4721 33.8113 65.5294 33.9996 65.5785 34.1797C65.644 34.3598 65.7095 34.5481 65.7749 34.7446C65.8404 34.5481 65.8977 34.3598 65.9469 34.1797C66.0123 33.9996 66.0778 33.8113 66.1433 33.6149C66.2088 33.4184 66.2825 33.2056 66.3643 32.9764C66.4462 32.7308 66.5363 32.4443 66.6345 32.1168C66.7 31.904 66.7655 31.6584 66.8309 31.3801C66.9128 31.1018 66.9947 30.8234 67.0765 30.5451C67.1584 30.2504 67.2403 29.9721 67.3221 29.7101C67.4203 29.4482 67.5268 29.2272 67.6414 29.0471C67.756 28.867 67.9115 28.7196 68.108 28.605C68.3044 28.474 68.5091 28.4004 68.7219 28.384C68.9348 28.3513 69.1476 28.3758 69.3604 28.4577C69.5896 28.5395 69.7861 28.7033 69.9498 28.9488ZM74.3432 31.2327C74.3432 30.8562 74.3351 30.4551 74.3187 30.0294C74.3187 29.6037 74.3924 29.219 74.5397 28.8752C74.6707 28.5641 74.8835 28.3431 75.1782 28.2121C75.4893 28.0647 75.7922 28.032 76.0869 28.1139C76.3816 28.163 76.6108 28.253 76.7745 28.384C76.9382 28.515 77.0528 28.6705 77.1183 28.8506C77.2002 29.0143 77.2493 29.2108 77.2657 29.44C77.282 29.6528 77.2984 29.8657 77.3148 30.0785C77.4785 29.7838 77.6832 29.5464 77.9287 29.3663C78.1743 29.1862 78.4281 29.0389 78.69 28.9243C78.952 28.8097 79.1976 28.7278 79.4268 28.6787C79.6724 28.6296 79.8606 28.605 79.9916 28.605C80.6138 28.605 81.2277 28.7442 81.8335 29.0225C82.4556 29.2845 82.9713 29.661 83.3806 30.1522C83.6098 30.4469 83.7818 30.758 83.8964 31.0854C84.0273 31.3965 84.1174 31.7239 84.1665 32.0677C84.232 32.4115 84.2729 32.7635 84.2893 33.1237C84.3057 33.4675 84.322 33.8195 84.3384 34.1797C84.4203 35.2275 84.4203 36.2672 84.3384 37.2986C84.322 37.5114 84.3138 37.757 84.3138 38.0353C84.3138 38.3137 84.2893 38.592 84.2402 38.8703C84.2074 39.1323 84.1338 39.3697 84.0192 39.5825C83.9209 39.779 83.749 39.9018 83.5034 39.9509C83.1596 40.0327 82.8731 40.0491 82.6439 40C82.4311 39.9673 82.2592 39.8936 82.1282 39.779C81.9972 39.6644 81.899 39.517 81.8335 39.3369C81.768 39.1568 81.7107 38.9522 81.6616 38.723C81.6288 38.5429 81.5961 38.3382 81.5633 38.109C81.547 37.8634 81.5306 37.6179 81.5142 37.3723C81.5142 37.1267 81.506 36.8893 81.4897 36.6601C81.4897 36.4145 81.4897 36.1935 81.4897 35.997C81.4897 35.686 81.4815 35.3421 81.4651 34.9656C81.4487 34.589 81.4487 34.237 81.4651 33.9096C81.4651 33.1401 81.2605 32.5589 80.8512 32.166C80.4582 31.7567 79.9179 31.5847 79.2303 31.6502C78.7064 31.7157 78.248 31.9286 77.8551 32.2887C77.4621 32.6326 77.2738 33.0828 77.2902 33.6394C77.2902 33.8523 77.2902 34.0487 77.2902 34.2288C77.2902 34.4089 77.282 34.589 77.2657 34.7691C77.2657 34.9492 77.2657 35.1457 77.2657 35.3585C77.2657 35.5713 77.2657 35.8087 77.2657 36.0707C77.2657 36.611 77.2657 37.184 77.2657 37.7898C77.2657 38.3792 77.192 38.8621 77.0446 39.2387C76.9137 39.6316 76.6926 39.9018 76.3816 40.0491C76.0705 40.1965 75.7021 40.1555 75.2765 39.9263C75.0964 39.8281 74.949 39.6971 74.8344 39.5334C74.7362 39.3533 74.6543 39.165 74.5888 38.9686C74.5397 38.7721 74.507 38.5756 74.4906 38.3792C74.4742 38.1663 74.4578 37.9699 74.4415 37.7898C74.3924 37.2495 74.3596 36.7501 74.3432 36.2917C74.3432 35.8169 74.3432 35.3094 74.3432 34.7691V31.2327ZM91.8584 38.0353C91.842 38.1172 91.8256 38.1991 91.8093 38.2809C91.8093 38.3464 91.8093 38.4201 91.8093 38.502L91.6619 39.0177C91.6292 39.0832 91.6046 39.1241 91.5882 39.1405L91.5146 39.2878C91.4327 39.4679 91.2854 39.6153 91.0725 39.7299C90.6796 39.9263 90.2621 39.9754 89.82 39.8772C89.5417 39.8445 89.3207 39.7626 89.157 39.6316C88.9933 39.517 88.8787 39.3779 88.8132 39.2141C88.7477 39.0504 88.6986 38.8867 88.6658 38.723C88.6167 38.5593 88.5921 38.4119 88.5921 38.2809V24.5284C88.5921 24.4138 88.5921 24.3155 88.5921 24.2337C88.6085 24.1354 88.6249 24.0454 88.6413 23.9635C88.6576 23.8489 88.674 23.7507 88.6904 23.6688C88.7231 23.587 88.7559 23.4969 88.7886 23.3987C88.8377 23.235 88.9278 23.104 89.0587 23.0058C89.2552 22.8584 89.4435 22.7766 89.6236 22.7602C89.7382 22.7274 89.8446 22.7111 89.9428 22.7111C90.0411 22.6947 90.1557 22.6865 90.2867 22.6865C90.5159 22.6865 90.7778 22.752 91.0725 22.883C91.3017 23.014 91.4654 23.194 91.5637 23.4233C91.7274 23.7507 91.8093 24.0536 91.8093 24.3319C91.8256 24.4956 91.8338 24.7412 91.8338 25.0687C91.8502 25.3961 91.8584 25.6417 91.8584 25.8054V25.9036C91.8911 26.4275 91.9075 26.9351 91.9075 27.4262C91.9075 27.901 91.8993 28.4249 91.8829 28.998C91.8829 29.5546 91.8747 30.0949 91.8584 30.6188C91.8584 31.1263 91.8584 31.6339 91.8584 32.1414V37.2986C91.8584 37.3641 91.8584 37.4296 91.8584 37.4951C91.8747 37.5442 91.8829 37.6015 91.8829 37.667C91.8829 37.8307 91.8747 37.9535 91.8584 38.0353ZM99.2465 28.8997C99.7868 28.6378 100.352 28.4495 100.941 28.3349C101.53 28.2203 102.112 28.1957 102.685 28.2612C103.274 28.3267 103.839 28.4822 104.379 28.7278C104.936 28.9734 105.443 29.3172 105.902 29.7593C106.278 30.1358 106.606 30.5942 106.884 31.1345C107.162 31.6584 107.367 32.1741 107.498 32.6817C107.776 33.5821 107.817 34.4908 107.621 35.4076C107.424 36.3245 107.089 37.1758 106.614 37.9617C106.385 38.3219 106.098 38.6493 105.754 38.944C105.427 39.2223 105.075 39.4515 104.698 39.6316C104.207 39.8608 103.675 40.0164 103.102 40.0982C102.529 40.1965 101.972 40.221 101.432 40.1719C100.45 40.1228 99.5822 39.8772 98.8291 39.4352C98.0923 38.9931 97.4947 38.4283 97.0363 37.7407C96.5943 37.053 96.2996 36.2753 96.1522 35.4076C96.0212 34.5235 96.0785 33.6231 96.3241 32.7062C96.5861 31.7239 96.9626 30.9299 97.4538 30.3241C97.9613 29.702 98.5589 29.2272 99.2465 28.8997ZM99.9833 32.1905C99.7377 32.4197 99.5494 32.7062 99.4184 33.05C99.2875 33.3939 99.2056 33.754 99.1729 34.1306C99.1401 34.4908 99.1647 34.8592 99.2465 35.2357C99.3448 35.5959 99.4921 35.9233 99.6886 36.218C99.8523 36.4636 100.147 36.6683 100.573 36.832C100.998 36.9957 101.44 37.094 101.899 37.1267C102.423 37.1594 102.881 37.0203 103.274 36.7092C103.667 36.3818 103.962 35.9807 104.158 35.5059C104.371 35.0311 104.469 34.5153 104.453 33.9587C104.436 33.402 104.289 32.8945 104.011 32.4361C103.814 32.1087 103.536 31.8713 103.176 31.7239C102.832 31.5602 102.464 31.4783 102.071 31.4783C101.694 31.462 101.318 31.5193 100.941 31.6502C100.564 31.7648 100.245 31.9449 99.9833 32.1905ZM114.784 29.661C115.275 29.4154 115.791 29.2435 116.331 29.1453C116.872 29.0307 117.404 29.0061 117.928 29.0716C118.468 29.1207 118.984 29.2599 119.475 29.4891C119.966 29.702 120.424 30.013 120.85 30.4223C121.276 30.848 121.603 31.3146 121.832 31.8221C122.062 32.3297 122.225 32.8945 122.324 33.5167C122.389 33.9423 122.495 34.3353 122.643 34.6954C122.79 35.0556 122.946 35.4158 123.109 35.776C123.289 36.1362 123.453 36.4964 123.601 36.8566C123.764 37.2167 123.895 37.5933 123.993 37.9862C124.075 38.3628 124.043 38.7312 123.895 39.0913C123.764 39.4352 123.486 39.648 123.06 39.7299C122.815 39.779 122.577 39.7626 122.348 39.6807C122.135 39.5825 121.939 39.4515 121.759 39.2878C121.579 39.1077 121.415 38.9194 121.268 38.723C121.137 38.5101 121.014 38.3137 120.899 38.1336C120.523 38.6247 120.113 39.0095 119.671 39.2878C119.229 39.5498 118.697 39.7217 118.075 39.8035C117.551 39.869 117.052 39.8854 116.577 39.8527C116.102 39.8199 115.595 39.7299 115.054 39.5825C114.35 39.4024 113.769 39.0913 113.311 38.6493C112.869 38.1909 112.525 37.667 112.279 37.0776C112.05 36.4718 111.927 35.8251 111.911 35.1375C111.894 34.4499 111.976 33.7704 112.156 33.0992C112.386 32.2151 112.729 31.4947 113.188 30.938C113.646 30.3814 114.178 29.9557 114.784 29.661ZM115.398 32.5343C115.169 32.7635 114.989 33.0337 114.858 33.3447C114.727 33.6558 114.645 33.9833 114.612 34.3271C114.596 34.6709 114.629 35.0147 114.71 35.3585C114.792 35.7023 114.923 36.0052 115.103 36.2672C115.267 36.4964 115.545 36.6928 115.938 36.8566C116.331 37.0039 116.741 37.094 117.166 37.1267C117.657 37.1594 118.083 37.0285 118.443 36.7338C118.82 36.4391 119.098 36.0707 119.278 35.6287C119.475 35.1702 119.565 34.6873 119.548 34.1797C119.532 33.6558 119.393 33.181 119.131 32.7553C118.934 32.4443 118.673 32.2151 118.345 32.0677C118.034 31.9204 117.698 31.8467 117.338 31.8467C116.978 31.8303 116.618 31.8876 116.258 32.0186C115.914 32.1332 115.627 32.3051 115.398 32.5343ZM135.909 22.8339C136.22 22.752 136.49 22.7438 136.719 22.8093C136.965 22.8584 137.17 22.9648 137.333 23.1286C137.513 23.2923 137.644 23.4969 137.726 23.7425C137.824 23.9881 137.874 24.2582 137.874 24.5529C137.89 25.3715 137.89 26.01 137.874 26.4685C137.874 26.9269 137.874 27.328 137.874 27.6718V35.2112C137.874 36.0953 137.874 36.832 137.874 37.4214C137.874 38.0108 137.841 38.4938 137.775 38.8703C137.726 39.2305 137.628 39.5007 137.481 39.6807C137.35 39.8608 137.145 39.9836 136.867 40.0491C136.588 40.131 136.22 40.1719 135.762 40.1719C135.32 40.1719 134.763 40.1719 134.092 40.1719C132.323 40.1719 130.924 39.7544 129.892 38.9194C128.877 38.0845 128.337 36.7583 128.271 34.941C128.239 34.1552 128.337 33.4348 128.566 32.7799C128.795 32.125 129.131 31.5684 129.573 31.11C130.031 30.6352 130.588 30.275 131.243 30.0294C131.914 29.7674 132.675 29.6447 133.527 29.661H134.878V25.2651C134.878 25.0032 134.878 24.7494 134.878 24.5038C134.878 24.2419 134.902 24.0045 134.951 23.7916C135 23.5624 135.099 23.366 135.246 23.2022C135.393 23.0385 135.614 22.9157 135.909 22.8339ZM131.636 36.4636C131.98 36.9384 132.602 37.2004 133.502 37.2495C133.682 37.2659 133.854 37.274 134.018 37.274C134.182 37.2577 134.329 37.2331 134.46 37.2004C134.607 37.184 134.747 37.1594 134.878 37.1267V32.5834C134.304 32.4852 133.781 32.4279 133.306 32.4115C132.847 32.3788 132.389 32.5425 131.931 32.9027C131.685 33.0992 131.497 33.3529 131.366 33.664C131.235 33.9587 131.161 34.278 131.145 34.6218C131.128 34.9492 131.161 35.2767 131.243 35.6041C131.325 35.9315 131.456 36.218 131.636 36.4636Z" fill="white"/>
</g>
<g filter="url(#filter2_d_17_19)">
<path d="M83.2323 66.6923C82.6188 67.4672 81.4436 67.4687 80.8281 66.6955L69.3657 52.2954C68.5658 51.2905 69.2802 49.8063 70.5645 49.8046L93.4515 49.7746C94.7359 49.7729 95.4542 51.2553 94.6569 52.2622L83.2323 66.6923Z" fill="white"/>
</g>
<defs>
<filter id="filter0_d_17_19" x="0.651165" y="0.651165" width="162.698" height="62.9302" filterUnits="userSpaceOnUse" color-interpolation-filters="sRGB">
<feFlood flood-opacity="0" result="BackgroundImageFix"/>
<feColorMatrix in="SourceAlpha" type="matrix" values="0 0 0 0 0 0 0 0 0 0 0 0 0 0 0 0 0 0 127 0" result="hardAlpha"/>
<feOffset/>
<feGaussianBlur stdDeviation="7.67442"/>
<feComposite in2="hardAlpha" operator="out"/>
<feColorMatrix type="matrix" values="0 0 0 0 0 0 0 0 0 0 0 0 0 0 0 0 0 0 0.25 0"/>
<feBlend mode="normal" in2="BackgroundImageFix" result="effect1_dropShadow_17_19"/>
<feBlend mode="normal" in="SourceGraphic" in2="effect1_dropShadow_17_19" result="shape"/>
</filter>
<filter id="filter1_d_17_19" x="10.6089" y="7.33769" width="142.638" height="48.4041" filterUnits="userSpaceOnUse" color-interpolation-filters="sRGB">
<feFlood flood-opacity="0" result="BackgroundImageFix"/>
<feColorMatrix in="SourceAlpha" type="matrix" values="0 0 0 0 0 0 0 0 0 0 0 0 0 0 0 0 0 0 127 0" result="hardAlpha"/>
<feOffset/>
<feGaussianBlur stdDeviation="7.67442"/>
<feComposite in2="hardAlpha" operator="out"/>
<feColorMatrix type="matrix" values="0 0 0 0 0 0 0 0 0 0 0 0 0 0 0 0 0 0 0.25 0"/>
<feBlend mode="normal" in2="BackgroundImageFix" result="effect1_dropShadow_17_19"/>
<feBlend mode="normal" in="SourceGraphic" in2="effect1_dropShadow_17_19" result="shape"/>
</filter>
<filter id="filter2_d_17_19" x="53.68" y="34.4258" width="56.6602" height="48.1975" filterUnits="userSpaceOnUse" color-interpolation-filters="sRGB">
<feFlood flood-opacity="0" result="BackgroundImageFix"/>
<feColorMatrix in="SourceAlpha" type="matrix" values="0 0 0 0 0 0 0 0 0 0 0 0 0 0 0 0 0 0 127 0" result="hardAlpha"/>
<feOffset/>
<feGaussianBlur stdDeviation="7.67442"/>
<feComposite in2="hardAlpha" operator="out"/>
<feColorMatrix type="matrix" values="0 0 0 0 0 0 0 0 0 0 0 0 0 0 0 0 0 0 0.25 0"/>
<feBlend mode="normal" in2="BackgroundImageFix" result="effect1_dropShadow_17_19"/>
<feBlend mode="normal" in="SourceGraphic" in2="effect1_dropShadow_17_19" result="shape"/>
</filter>
</defs>
</svg>
