<svg width="222" height="222" viewBox="0 0 222 222" fill="none" xmlns="http://www.w3.org/2000/svg">
<g filter="url(#filter0_d_23_7)">
<circle cx="111" cy="111" r="91" fill="#305216"/>
</g>
<g filter="url(#filter1_d_23_7)">
<path d="M82.657 109.246C79.1047 105.017 72.7968 104.469 68.568 108.021C64.3392 111.573 63.7907 117.881 67.343 122.11L82.657 109.246ZM101.311 147L93.6541 153.432C95.6824 155.847 98.7308 157.163 101.879 156.984C105.027 156.805 107.907 155.151 109.648 152.522L101.311 147ZM157.337 80.522C160.387 75.9176 159.126 69.7126 154.522 66.6629C149.918 63.6132 143.713 64.8735 140.663 69.478L157.337 80.522ZM67.343 122.11L93.6541 153.432L108.968 140.568L82.657 109.246L67.343 122.11ZM109.648 152.522L157.337 80.522L140.663 69.478L92.974 141.478L109.648 152.522Z" fill="white"/>
</g>
<defs>
<filter id="filter0_d_23_7" x="0" y="0" width="222" height="222" filterUnits="userSpaceOnUse" color-interpolation-filters="sRGB">
<feFlood flood-opacity="0" result="BackgroundImageFix"/>
<feColorMatrix in="SourceAlpha" type="matrix" values="0 0 0 0 0 0 0 0 0 0 0 0 0 0 0 0 0 0 127 0" result="hardAlpha"/>
<feOffset/>
<feGaussianBlur stdDeviation="10"/>
<feComposite in2="hardAlpha" operator="out"/>
<feColorMatrix type="matrix" values="0 0 0 0 0 0 0 0 0 0 0 0 0 0 0 0 0 0 0.25 0"/>
<feBlend mode="normal" in2="BackgroundImageFix" result="effect1_dropShadow_23_7"/>
<feBlend mode="normal" in="SourceGraphic" in2="effect1_dropShadow_23_7" result="shape"/>
</filter>
<filter id="filter1_d_23_7" x="34.9998" y="34.9989" width="154.001" height="152.001" filterUnits="userSpaceOnUse" color-interpolation-filters="sRGB">
<feFlood flood-opacity="0" result="BackgroundImageFix"/>
<feColorMatrix in="SourceAlpha" type="matrix" values="0 0 0 0 0 0 0 0 0 0 0 0 0 0 0 0 0 0 127 0" result="hardAlpha"/>
<feOffset/>
<feGaussianBlur stdDeviation="15"/>
<feComposite in2="hardAlpha" operator="out"/>
<feColorMatrix type="matrix" values="0 0 0 0 0 0 0 0 0 0 0 0 0 0 0 0 0 0 0.25 0"/>
<feBlend mode="normal" in2="BackgroundImageFix" result="effect1_dropShadow_23_7"/>
<feBlend mode="normal" in="SourceGraphic" in2="effect1_dropShadow_23_7" result="shape"/>
</filter>
</defs>
</svg>
