<svg width="83" height="60" viewBox="0 0 83 72" fill="none" xmlns="http://www.w3.org/2000/svg">
<g filter="url(#filter0_d_79_28)">
<rect x="15" y="15" width="52.92" height="42" rx="21" fill="white"/>
</g>
<path d="M50.9187 33.2863L52.3762 31.8287C53.4487 30.7562 53.4487 29.01 52.3762 27.9375L50.4375 25.9988C49.365 24.9263 47.6187 24.9263 46.5462 25.9988L45.0887 27.4563L50.9187 33.2863ZM43.1362 29.395L30.5 42.045V47.875H36.33L48.9662 35.2388L43.1362 29.395V29.395ZM51.125 43.0625C51.125 46.0738 47.6325 47.875 44.25 47.875C43.4937 47.875 42.875 47.2563 42.875 46.5C42.875 45.7437 43.4937 45.125 44.25 45.125C46.3675 45.125 48.375 44.1212 48.375 43.0625C48.375 42.4163 47.715 41.8662 46.6837 41.4125L48.7187 39.3775C50.19 40.2437 51.125 41.3987 51.125 43.0625ZM31.2975 37.3563C29.9637 36.5863 29.125 35.5825 29.125 34.125C29.125 31.65 31.7237 30.5087 34.02 29.505C35.4362 28.8725 37.375 28.02 37.375 27.25C37.375 26.6863 36.3025 25.875 34.625 25.875C32.8925 25.875 32.15 26.7137 32.1087 26.755C31.6275 27.3187 30.7612 27.3875 30.1837 26.92C29.908 26.6935 29.732 26.3681 29.6934 26.0133C29.6549 25.6586 29.7569 25.3029 29.9775 25.0225C30.1287 24.83 31.545 23.125 34.625 23.125C37.705 23.125 40.125 24.94 40.125 27.25C40.125 29.8213 37.4712 30.99 35.12 32.0213C33.8275 32.585 31.875 33.4375 31.875 34.125C31.875 34.5513 32.4662 34.95 33.3462 35.3075L31.2975 37.3563Z" fill="#494949"/>
<defs>
<filter id="filter0_d_79_28" x="0" y="0" width="82.92" height="72" filterUnits="userSpaceOnUse" color-interpolation-filters="sRGB">
<feFlood flood-opacity="0" result="BackgroundImageFix"/>
<feColorMatrix in="SourceAlpha" type="matrix" values="0 0 0 0 0 0 0 0 0 0 0 0 0 0 0 0 0 0 127 0" result="hardAlpha"/>
<feOffset/>
<feGaussianBlur stdDeviation="7.5"/>
<feComposite in2="hardAlpha" operator="out"/>
<feColorMatrix type="matrix" values="0 0 0 0 0 0 0 0 0 0 0 0 0 0 0 0 0 0 0.25 0"/>
<feBlend mode="normal" in2="BackgroundImageFix" result="effect1_dropShadow_79_28"/>
<feBlend mode="normal" in="SourceGraphic" in2="effect1_dropShadow_79_28" result="shape"/>
</filter>
</defs>
</svg>
