<svg width="286" height="73" viewBox="0 0 286 73" fill="none" xmlns="http://www.w3.org/2000/svg">
<path d="M127.96 16.656C128.045 16.3147 128.088 15.9947 128.088 15.696C128.131 15.3547 128.173 15.0133 128.216 14.672C128.216 14.3733 128.216 14.1173 128.216 13.904C128.259 13.6907 128.28 13.4987 128.28 13.328L128.6 12.624C128.728 12.5813 128.899 12.56 129.112 12.56C129.325 12.56 129.581 12.5387 129.88 12.496C130.776 12.4533 131.352 12.3467 131.608 12.176C131.608 12.1333 131.715 12.048 131.928 11.92C132.056 11.792 132.163 11.7067 132.248 11.664C132.291 11.664 132.44 11.6853 132.696 11.728C132.952 11.7707 133.293 11.856 133.72 11.984C134.445 12.1547 134.957 12.24 135.256 12.24C135.64 12.24 135.853 12.2187 135.896 12.176C135.939 12.1333 136.067 12.1333 136.28 12.176L136.856 13.264L137.432 16.528L136.088 18.768C136.045 18.8107 136.003 18.8533 135.96 18.896C135.96 18.9387 135.917 18.9813 135.832 19.024C135.619 19.152 135.363 19.344 135.064 19.6L134.872 19.792L132.952 19.984C132.696 19.8987 132.397 19.8133 132.056 19.728C131.715 19.6 131.309 19.4507 130.84 19.28C130.371 19.1093 129.965 18.96 129.624 18.832C129.283 18.6613 128.984 18.5333 128.728 18.448L128.408 18.128L127.96 16.656ZM135.896 27.664L135.64 29.968L135.896 30.928L135.512 31.952L135.704 33.424L135.384 34.64L135.576 35.024L135.32 37.904L135.064 43.984C135.064 44.2827 135.021 44.6667 134.936 45.136C134.851 45.5627 134.787 46.032 134.744 46.544C134.701 47.0133 134.701 47.504 134.744 48.016C134.787 48.4853 134.915 48.8907 135.128 49.232C135.085 49.872 135.021 50.6187 134.936 51.472C134.851 52.3253 134.701 53.3067 134.488 54.416C134.147 54.8853 133.784 55.312 133.4 55.696C133.059 56.0373 132.397 56.2293 131.416 56.272C130.861 56.3147 130.307 56.3573 129.752 56.4C129.24 56.4427 128.749 56.5067 128.28 56.592C128.024 56.6347 127.768 56.6773 127.512 56.72C127.256 56.7627 126.979 56.8267 126.68 56.912L125.08 54.864C125.123 54.6507 125.187 54.0747 125.272 53.136C125.4 52.1547 125.507 51.0027 125.592 49.68C125.677 48.3573 125.72 46.9493 125.72 45.456C125.763 43.9627 125.72 42.576 125.592 41.296L125.976 40.08L126.552 37.264L126.744 35.024L127.128 34.256L127.192 33.68L127.576 31.952L127.896 28.432L133.656 26.192L135.896 27.664Z" fill="white"/>
<rect x="144.71" y="38.0486" width="9.78556" height="9.78556" rx="2" transform="rotate(-45 144.71 38.0486)" fill="white"/>
<rect x="104" y="37.9194" width="9.78556" height="9.78556" rx="2" transform="rotate(-45 104 37.9194)" fill="white"/>
<path d="M36.134 27.9C36.482 28.4027 36.598 29.1953 36.482 30.278C36.4047 31.322 36.2113 32.4627 35.902 33.7C35.5927 34.8987 35.2253 36.0973 34.8 37.296C34.3747 38.456 34.0267 39.4227 33.756 40.196C33.0987 41.9747 32.5187 43.6373 32.016 45.184C31.5133 46.7307 30.914 48.432 30.218 50.288C29.986 50.8293 29.754 51.3707 29.522 51.912C29.3287 52.4533 29.0773 52.9367 28.768 53.362C28.4973 53.7873 28.1493 54.1353 27.724 54.406C27.3373 54.6767 26.854 54.812 26.274 54.812C25.6167 54.812 25.0367 54.58 24.534 54.116C24.07 53.652 23.664 53.072 23.316 52.376C23.0067 51.68 22.736 50.9453 22.504 50.172C22.272 49.3987 22.0787 48.722 21.924 48.142C21.4213 46.4407 20.9767 44.894 20.59 43.502C20.2033 42.0713 19.8553 40.7953 19.546 39.674C19.198 40.7953 18.85 42.0133 18.502 43.328C18.154 44.6427 17.7093 46.1313 17.168 47.794C17.0133 48.374 16.82 49.0893 16.588 49.94C16.356 50.752 16.066 51.5253 15.718 52.26C15.4087 52.9947 15.0027 53.6133 14.5 54.116C14.036 54.6573 13.4753 54.8893 12.818 54.812C11.89 54.7733 11.078 54.406 10.382 53.71C9.72467 52.9753 9.14467 52.1053 8.642 51.1C8.178 50.0947 7.772 49.0507 7.424 47.968C7.076 46.8853 6.786 45.938 6.554 45.126C6.24467 44.082 5.87733 42.922 5.452 41.646C5.02667 40.37 4.60133 39.0747 4.176 37.76C3.78933 36.4067 3.422 35.0727 3.074 33.758C2.726 32.4047 2.494 31.1673 2.378 30.046C2.30067 29.3113 2.436 28.6347 2.784 28.016C3.17067 27.3973 3.654 26.972 4.234 26.74C4.85267 26.4693 5.51 26.4113 6.206 26.566C6.94067 26.7207 7.598 27.1847 8.178 27.958C8.48733 28.3447 8.758 28.828 8.99 29.408C9.26067 29.988 9.49267 30.626 9.686 31.322C9.87933 31.9793 10.0727 32.656 10.266 33.352C10.4593 34.048 10.6527 34.7247 10.846 35.382C11.2713 36.8513 11.6193 38.0113 11.89 38.862C12.1993 39.674 12.5087 40.5247 12.818 41.414C13.0887 40.5247 13.3593 39.674 13.63 38.862C13.9393 38.0113 14.3067 36.8513 14.732 35.382C14.8867 34.918 15.0607 34.396 15.254 33.816C15.486 33.1973 15.718 32.6173 15.95 32.076C16.2207 31.5347 16.5107 31.032 16.82 30.568C17.168 30.0653 17.5353 29.698 17.922 29.466C18.7727 28.886 19.546 28.7507 20.242 29.06C20.938 29.3307 21.5373 29.814 22.04 30.51C22.5427 31.206 22.968 32.018 23.316 32.946C23.7027 33.8353 24.012 34.6473 24.244 35.382C24.476 36.1553 24.6887 36.832 24.882 37.412C25.0753 37.9533 25.2493 38.456 25.404 38.92C25.5587 39.384 25.694 39.8287 25.81 40.254C25.9647 40.6793 26.1193 41.124 26.274 41.588C26.4287 41.124 26.564 40.6793 26.68 40.254C26.8347 39.8287 26.9893 39.384 27.144 38.92C27.2987 38.456 27.4727 37.9533 27.666 37.412C27.8593 36.832 28.072 36.1553 28.304 35.382C28.4587 34.8793 28.6133 34.2993 28.768 33.642C28.9613 32.9847 29.1547 32.3273 29.348 31.67C29.5413 30.974 29.7347 30.3167 29.928 29.698C30.16 29.0793 30.4113 28.5573 30.682 28.132C30.9527 27.7067 31.32 27.3587 31.784 27.088C32.248 26.7787 32.7313 26.6047 33.234 26.566C33.7367 26.4887 34.2393 26.5467 34.742 26.74C35.2833 26.9333 35.7473 27.32 36.134 27.9ZM46.8853 29.582C48.0453 29.002 49.2633 28.596 50.5393 28.364C51.8153 28.0933 53.072 28.0353 54.3093 28.19C55.5853 28.306 56.8033 28.6347 57.9633 29.176C59.1233 29.6787 60.206 30.4133 61.2113 31.38C62.2166 32.3853 62.99 33.4873 63.5313 34.686C64.0726 35.8847 64.4593 37.2187 64.6913 38.688C64.846 39.6933 65.0973 40.6213 65.4453 41.472C65.7933 42.3227 66.1606 43.1733 66.5473 44.024C66.9726 44.8747 67.3593 45.7253 67.7073 46.576C68.094 47.4267 68.4033 48.316 68.6353 49.244C68.8286 50.1333 68.7513 51.0033 68.4033 51.854C68.094 52.666 67.4366 53.1687 66.4313 53.362C65.8513 53.478 65.2906 53.4393 64.7493 53.246C64.2466 53.014 63.7826 52.7047 63.3573 52.318C62.932 51.8927 62.5453 51.448 62.1973 50.984C61.888 50.4813 61.598 50.0173 61.3273 49.592C60.438 50.752 59.4713 51.6607 58.4273 52.318C57.3833 52.9367 56.1266 53.3427 54.6573 53.536C53.42 53.6907 52.2406 53.7293 51.1193 53.652C49.998 53.5747 48.7993 53.362 47.5233 53.014C45.8606 52.5887 44.488 51.854 43.4053 50.81C42.3613 49.7273 41.5493 48.49 40.9693 47.098C40.428 45.6673 40.138 44.14 40.0993 42.516C40.0606 40.892 40.254 39.2873 40.6793 37.702C41.2206 35.614 42.0326 33.9127 43.1153 32.598C44.198 31.2833 45.4546 30.278 46.8853 29.582ZM48.3353 36.368C47.794 36.9093 47.3686 37.5473 47.0593 38.282C46.75 39.0167 46.5566 39.79 46.4793 40.602C46.4406 41.414 46.518 42.226 46.7113 43.038C46.9046 43.85 47.214 44.5653 47.6393 45.184C48.026 45.7253 48.6833 46.1893 49.6113 46.576C50.5393 46.924 51.506 47.1367 52.5113 47.214C53.6713 47.2913 54.6766 46.982 55.5273 46.286C56.4166 45.59 57.074 44.72 57.4993 43.676C57.9633 42.5933 58.176 41.4527 58.1373 40.254C58.0986 39.0167 57.77 37.8953 57.1513 36.89C56.6873 36.1553 56.0686 35.614 55.2953 35.266C54.5606 34.918 53.768 34.744 52.9173 34.744C52.0666 34.7053 51.216 34.8407 50.3653 35.15C49.5533 35.4207 48.8766 35.8267 48.3353 36.368ZM81.1746 49.36C81.136 49.5533 81.0973 49.7467 81.0586 49.94C81.0586 50.0947 81.0586 50.2687 81.0586 50.462L80.7106 51.68C80.6333 51.8347 80.5753 51.9313 80.5366 51.97L80.3626 52.318C80.1693 52.7433 79.8213 53.0913 79.3186 53.362C78.3906 53.826 77.4046 53.942 76.3606 53.71C75.7033 53.6327 75.1813 53.4393 74.7946 53.13C74.408 52.8593 74.1373 52.5307 73.9826 52.144C73.828 51.7573 73.712 51.3707 73.6346 50.984C73.5186 50.5973 73.4606 50.2493 73.4606 49.94V17.46C73.4606 17.1893 73.4606 16.9573 73.4606 16.764C73.4993 16.532 73.538 16.3193 73.5766 16.126C73.6153 15.8553 73.654 15.6233 73.6926 15.43C73.77 15.2367 73.8473 15.024 73.9246 14.792C74.0406 14.4053 74.2533 14.096 74.5626 13.864C75.0266 13.516 75.4713 13.3227 75.8966 13.284C76.1673 13.2067 76.4186 13.168 76.6506 13.168C76.8826 13.1293 77.1533 13.11 77.4626 13.11C78.004 13.11 78.6226 13.2647 79.3186 13.574C79.86 13.8833 80.2466 14.3087 80.4786 14.85C80.8653 15.6233 81.0586 16.3387 81.0586 16.996C81.0973 17.3827 81.1166 17.9627 81.1166 18.736C81.1553 19.5093 81.1746 20.0893 81.1746 20.476V20.708C81.252 21.9453 81.2906 23.144 81.2906 24.304C81.2906 25.4253 81.2713 26.6627 81.2326 28.016C81.2326 29.3307 81.2133 30.6067 81.1746 31.844C81.1746 33.0427 81.1746 34.2413 81.1746 35.44V47.62C81.1746 47.7747 81.1746 47.9293 81.1746 48.084C81.2133 48.2 81.2326 48.3353 81.2326 48.49C81.2326 48.8767 81.2133 49.1667 81.1746 49.36ZM96.1278 49.36C96.0891 49.5533 96.0504 49.7467 96.0118 49.94C96.0118 50.0947 96.0118 50.2687 96.0118 50.462L95.6638 51.68C95.5864 51.8347 95.5284 51.9313 95.4898 51.97L95.3158 52.318C95.1224 52.7433 94.7744 53.0913 94.2718 53.362C93.3438 53.826 92.3578 53.942 91.3138 53.71C90.6564 53.6327 90.1344 53.4393 89.7478 53.13C89.3611 52.8593 89.0904 52.5307 88.9358 52.144C88.7811 51.7573 88.6651 51.3707 88.5878 50.984C88.4718 50.5973 88.4138 50.2493 88.4138 49.94V17.46C88.4138 17.1893 88.4138 16.9573 88.4138 16.764C88.4524 16.532 88.4911 16.3193 88.5298 16.126C88.5684 15.8553 88.6071 15.6233 88.6458 15.43C88.7231 15.2367 88.8004 15.024 88.8778 14.792C88.9938 14.4053 89.2064 14.096 89.5158 13.864C89.9798 13.516 90.4244 13.3227 90.8498 13.284C91.1204 13.2067 91.3718 13.168 91.6038 13.168C91.8358 13.1293 92.1064 13.11 92.4158 13.11C92.9571 13.11 93.5758 13.2647 94.2718 13.574C94.8131 13.8833 95.1998 14.3087 95.4318 14.85C95.8184 15.6233 96.0118 16.3387 96.0118 16.996C96.0504 17.3827 96.0698 17.9627 96.0698 18.736C96.1084 19.5093 96.1278 20.0893 96.1278 20.476V20.708C96.2051 21.9453 96.2438 23.144 96.2438 24.304C96.2438 25.4253 96.2244 26.6627 96.1858 28.016C96.1858 29.3307 96.1664 30.6067 96.1278 31.844C96.1278 33.0427 96.1278 34.2413 96.1278 35.44V47.62C96.1278 47.7747 96.1278 47.9293 96.1278 48.084C96.1664 48.2 96.1858 48.3353 96.1858 48.49C96.1858 48.8767 96.1664 49.1667 96.1278 49.36Z" fill="white"/>
<path d="M184.416 13.458C185.151 13.2647 185.789 13.2453 186.33 13.4C186.91 13.516 187.393 13.7673 187.78 14.154C188.205 14.5407 188.515 15.024 188.708 15.604C188.94 16.184 189.056 16.822 189.056 17.518C189.095 19.4513 189.095 20.9593 189.056 22.042C189.056 23.1247 189.056 24.072 189.056 24.884V42.69C189.056 44.778 189.056 46.518 189.056 47.91C189.056 49.302 188.979 50.4427 188.824 51.332C188.708 52.1827 188.476 52.8207 188.128 53.246C187.819 53.6713 187.335 53.9613 186.678 54.116C186.021 54.3093 185.151 54.406 184.068 54.406C183.024 54.406 181.709 54.406 180.124 54.406C175.948 54.406 172.642 53.42 170.206 51.448C167.809 49.476 166.533 46.344 166.378 42.052C166.301 40.196 166.533 38.4947 167.074 36.948C167.615 35.4013 168.408 34.0867 169.452 33.004C170.535 31.8827 171.849 31.032 173.396 30.452C174.981 29.8333 176.779 29.5433 178.79 29.582H181.98V19.2C181.98 18.5813 181.98 17.982 181.98 17.402C181.98 16.7833 182.038 16.2227 182.154 15.72C182.27 15.1787 182.502 14.7147 182.85 14.328C183.198 13.9413 183.72 13.6513 184.416 13.458ZM174.324 45.648C175.136 46.7693 176.605 47.388 178.732 47.504C179.157 47.5427 179.563 47.562 179.95 47.562C180.337 47.5233 180.685 47.4653 180.994 47.388C181.342 47.3493 181.671 47.2913 181.98 47.214V36.484C180.627 36.252 179.389 36.1167 178.268 36.078C177.185 36.0007 176.103 36.3873 175.02 37.238C174.44 37.702 173.995 38.3013 173.686 39.036C173.377 39.732 173.203 40.486 173.164 41.298C173.125 42.0713 173.203 42.8447 173.396 43.618C173.589 44.3913 173.899 45.068 174.324 45.648ZM193.792 33.468C193.792 33.004 193.792 32.482 193.792 31.902C193.792 31.2833 193.811 30.6647 193.85 30.046C193.889 29.3887 193.947 28.77 194.024 28.19C194.14 27.5713 194.295 27.03 194.488 26.566C194.797 25.87 195.281 25.406 195.938 25.174C196.595 24.9033 197.311 24.7873 198.084 24.826C198.896 24.826 199.534 24.9613 199.998 25.232C200.462 25.5027 200.81 25.87 201.042 26.334C201.274 26.7593 201.409 27.262 201.448 27.842C201.525 28.3833 201.564 28.9633 201.564 29.582C201.912 28.9633 202.376 28.4607 202.956 28.074C203.575 27.6873 204.193 27.378 204.812 27.146C205.431 26.914 205.991 26.7593 206.494 26.682C206.997 26.566 207.287 26.508 207.364 26.508C208.331 26.4307 209.201 26.4113 209.974 26.45C210.786 26.4887 211.675 26.6627 212.642 26.972C213.261 27.204 213.899 27.5327 214.556 27.958C215.213 28.3447 215.793 28.8087 216.296 29.35C216.799 29.8913 217.127 30.4907 217.282 31.148C217.475 31.7667 217.398 32.424 217.05 33.12C216.509 34.0867 215.909 34.57 215.252 34.57C214.595 34.5313 213.879 34.4153 213.106 34.222C212.681 34.1447 212.178 33.9707 211.598 33.7C211.018 33.4293 210.515 33.2553 210.09 33.178C208.775 32.9847 207.615 33.0813 206.61 33.468C205.605 33.8547 204.735 34.3187 204 34.86C203.149 35.5173 202.415 36.2713 201.796 37.122V45.474C201.796 46.518 201.777 47.6007 201.738 48.722C201.738 49.8433 201.583 50.868 201.274 51.796C201.003 52.6853 200.52 53.42 199.824 54C199.167 54.5413 198.2 54.7733 196.924 54.696C196.228 54.6573 195.609 54.3287 195.068 53.71C194.527 53.0527 194.198 52.4147 194.082 51.796C194.005 51.216 193.947 50.52 193.908 49.708C193.869 48.896 193.831 48.0453 193.792 47.156C193.792 46.2667 193.792 45.3773 193.792 44.488C193.792 43.56 193.792 42.7093 193.792 41.936V33.468ZM225.385 29.582C226.545 29.002 227.763 28.596 229.039 28.364C230.315 28.0933 231.572 28.0353 232.809 28.19C234.085 28.306 235.303 28.6347 236.463 29.176C237.623 29.6787 238.706 30.4133 239.711 31.38C240.717 32.3853 241.49 33.4873 242.031 34.686C242.573 35.8847 242.959 37.2187 243.191 38.688C243.346 39.6933 243.597 40.6213 243.945 41.472C244.293 42.3227 244.661 43.1733 245.047 44.024C245.473 44.8747 245.859 45.7253 246.207 46.576C246.594 47.4267 246.903 48.316 247.135 49.244C247.329 50.1333 247.251 51.0033 246.903 51.854C246.594 52.666 245.937 53.1687 244.931 53.362C244.351 53.478 243.791 53.4393 243.249 53.246C242.747 53.014 242.283 52.7047 241.857 52.318C241.432 51.8927 241.045 51.448 240.697 50.984C240.388 50.4813 240.098 50.0173 239.827 49.592C238.938 50.752 237.971 51.6607 236.927 52.318C235.883 52.9367 234.627 53.3427 233.157 53.536C231.92 53.6907 230.741 53.7293 229.619 53.652C228.498 53.5747 227.299 53.362 226.023 53.014C224.361 52.5887 222.988 51.854 221.905 50.81C220.861 49.7273 220.049 48.49 219.469 47.098C218.928 45.6673 218.638 44.14 218.599 42.516C218.561 40.892 218.754 39.2873 219.179 37.702C219.721 35.614 220.533 33.9127 221.615 32.598C222.698 31.2833 223.955 30.278 225.385 29.582ZM226.835 36.368C226.294 36.9093 225.869 37.5473 225.559 38.282C225.25 39.0167 225.057 39.79 224.979 40.602C224.941 41.414 225.018 42.226 225.211 43.038C225.405 43.85 225.714 44.5653 226.139 45.184C226.526 45.7253 227.183 46.1893 228.111 46.576C229.039 46.924 230.006 47.1367 231.011 47.214C232.171 47.2913 233.177 46.982 234.027 46.286C234.917 45.59 235.574 44.72 235.999 43.676C236.463 42.5933 236.676 41.4527 236.637 40.254C236.599 39.0167 236.27 37.8953 235.651 36.89C235.187 36.1553 234.569 35.614 233.795 35.266C233.061 34.918 232.268 34.744 231.417 34.744C230.567 34.7053 229.716 34.8407 228.865 35.15C228.053 35.4207 227.377 35.8267 226.835 36.368ZM282.32 27.9C282.668 28.4027 282.784 29.1953 282.668 30.278C282.59 31.322 282.397 32.4627 282.088 33.7C281.778 34.8987 281.411 36.0973 280.986 37.296C280.56 38.456 280.212 39.4227 279.942 40.196C279.284 41.9747 278.704 43.6373 278.202 45.184C277.699 46.7307 277.1 48.432 276.404 50.288C276.172 50.8293 275.94 51.3707 275.708 51.912C275.514 52.4533 275.263 52.9367 274.954 53.362C274.683 53.7873 274.335 54.1353 273.91 54.406C273.523 54.6767 273.04 54.812 272.46 54.812C271.802 54.812 271.222 54.58 270.72 54.116C270.256 53.652 269.85 53.072 269.502 52.376C269.192 51.68 268.922 50.9453 268.69 50.172C268.458 49.3987 268.264 48.722 268.11 48.142C267.607 46.4407 267.162 44.894 266.776 43.502C266.389 42.0713 266.041 40.7953 265.732 39.674C265.384 40.7953 265.036 42.0133 264.688 43.328C264.34 44.6427 263.895 46.1313 263.354 47.794C263.199 48.374 263.006 49.0893 262.774 49.94C262.542 50.752 262.252 51.5253 261.904 52.26C261.594 52.9947 261.188 53.6133 260.686 54.116C260.222 54.6573 259.661 54.8893 259.004 54.812C258.076 54.7733 257.264 54.406 256.568 53.71C255.91 52.9753 255.33 52.1053 254.828 51.1C254.364 50.0947 253.958 49.0507 253.61 47.968C253.262 46.8853 252.972 45.938 252.74 45.126C252.43 44.082 252.063 42.922 251.638 41.646C251.212 40.37 250.787 39.0747 250.362 37.76C249.975 36.4067 249.608 35.0727 249.26 33.758C248.912 32.4047 248.68 31.1673 248.564 30.046C248.486 29.3113 248.622 28.6347 248.97 28.016C249.356 27.3973 249.84 26.972 250.42 26.74C251.038 26.4693 251.696 26.4113 252.392 26.566C253.126 26.7207 253.784 27.1847 254.364 27.958C254.673 28.3447 254.944 28.828 255.176 29.408C255.446 29.988 255.678 30.626 255.872 31.322C256.065 31.9793 256.258 32.656 256.452 33.352C256.645 34.048 256.838 34.7247 257.032 35.382C257.457 36.8513 257.805 38.0113 258.076 38.862C258.385 39.674 258.694 40.5247 259.004 41.414C259.274 40.5247 259.545 39.674 259.816 38.862C260.125 38.0113 260.492 36.8513 260.918 35.382C261.072 34.918 261.246 34.396 261.44 33.816C261.672 33.1973 261.904 32.6173 262.136 32.076C262.406 31.5347 262.696 31.032 263.006 30.568C263.354 30.0653 263.721 29.698 264.108 29.466C264.958 28.886 265.732 28.7507 266.428 29.06C267.124 29.3307 267.723 29.814 268.226 30.51C268.728 31.206 269.154 32.018 269.502 32.946C269.888 33.8353 270.198 34.6473 270.43 35.382C270.662 36.1553 270.874 36.832 271.068 37.412C271.261 37.9533 271.435 38.456 271.59 38.92C271.744 39.384 271.88 39.8287 271.996 40.254C272.15 40.6793 272.305 41.124 272.46 41.588C272.614 41.124 272.75 40.6793 272.866 40.254C273.02 39.8287 273.175 39.384 273.33 38.92C273.484 38.456 273.658 37.9533 273.852 37.412C274.045 36.832 274.258 36.1553 274.49 35.382C274.644 34.8793 274.799 34.2993 274.954 33.642C275.147 32.9847 275.34 32.3273 275.534 31.67C275.727 30.974 275.92 30.3167 276.114 29.698C276.346 29.0793 276.597 28.5573 276.868 28.132C277.138 27.7067 277.506 27.3587 277.97 27.088C278.434 26.7787 278.917 26.6047 279.42 26.566C279.922 26.4887 280.425 26.5467 280.928 26.74C281.469 26.9333 281.933 27.32 282.32 27.9Z" fill="white"/>
</svg>
