<svg width="70" height="74" viewBox="0 0 83 91" fill="none" xmlns="http://www.w3.org/2000/svg">
<g filter="url(#filter0_d_67_9)">
<rect x="15" y="15" width="52.92" height="42" rx="21" fill="white"/>
</g>
<path d="M41 38V26M41 38L37 34M41 38L45 34M31 40L31.621 42.485C31.7292 42.9177 31.9788 43.3018 32.3303 43.5763C32.6818 43.8508 33.115 43.9999 33.561 44H48.439C48.885 43.9999 49.3182 43.8508 49.6697 43.5763C50.0212 43.3018 50.2708 42.9177 50.379 42.485L51 40" stroke="#494949" stroke-width="4" stroke-linecap="round" stroke-linejoin="round"/>
<g filter="url(#filter1_d_67_9)">
<path d="M24.6339 71.48C24.3806 71.32 24.0939 71.1933 23.7739 71.1C23.4672 71.0067 23.1472 70.92 22.8139 70.84C22.4939 70.76 22.1806 70.6733 21.8739 70.58C21.5672 70.4733 21.2872 70.3267 21.0339 70.14C20.4872 69.7267 20.1672 69.22 20.0739 68.62C19.9939 68.0067 20.1272 67.3933 20.4739 66.78C20.6606 66.46 20.9072 66.2 21.2139 66C21.5206 65.7867 21.8539 65.6267 22.2139 65.52C22.5872 65.4 22.9672 65.3333 23.3539 65.32C23.7406 65.3067 24.1072 65.3267 24.4539 65.38C24.6806 65.42 24.9206 65.48 25.1739 65.56C25.4272 65.6267 25.6606 65.72 25.8739 65.84C26.1006 65.96 26.3006 66.1133 26.4739 66.3C26.6606 66.4733 26.7939 66.6933 26.8739 66.96C26.9272 67.1333 26.9339 67.3 26.8939 67.46C26.8672 67.62 26.8006 67.7533 26.6939 67.86C26.6006 67.9667 26.4739 68.0467 26.3139 68.1C26.1672 68.1533 26.0072 68.1667 25.8339 68.14C25.6339 68.1 25.4472 68.04 25.2739 67.96C25.1006 67.88 24.9272 67.7933 24.7539 67.7C24.5806 67.6067 24.4006 67.5267 24.2139 67.46C24.0406 67.3933 23.8539 67.36 23.6539 67.36C23.3472 67.3467 23.0939 67.4 22.8939 67.52C22.6939 67.64 22.5539 67.7867 22.4739 67.96C22.4072 68.1333 22.4139 68.32 22.4939 68.52C22.5872 68.72 22.7739 68.8933 23.0539 69.04C23.3072 69.1733 23.5872 69.28 23.8939 69.36C24.2006 69.44 24.5006 69.52 24.7939 69.6C25.1006 69.68 25.3939 69.7733 25.6739 69.88C25.9672 69.9867 26.2272 70.1333 26.4539 70.32C26.8939 70.68 27.1606 71.1 27.2539 71.58C27.3606 72.06 27.3339 72.5333 27.1739 73C27.0139 73.4667 26.7339 73.88 26.3339 74.24C25.9472 74.6 25.4872 74.84 24.9539 74.96C24.5672 75.04 24.1472 75.08 23.6939 75.08C23.2539 75.08 22.8139 75.0333 22.3739 74.94C21.9472 74.8467 21.5339 74.7 21.1339 74.5C20.7472 74.3 20.4206 74.0467 20.1539 73.74C19.9672 73.5267 19.8672 73.2867 19.8539 73.02C19.8539 72.74 19.9072 72.5 20.0139 72.3C20.1339 72.0867 20.3006 71.94 20.5139 71.86C20.7272 71.78 20.9672 71.8267 21.2339 72C21.4472 72.1467 21.7006 72.2933 21.9939 72.44C22.2872 72.5733 22.5806 72.68 22.8739 72.76C23.1672 72.84 23.4472 72.88 23.7139 72.88C23.9939 72.88 24.2339 72.82 24.4339 72.7C24.7272 72.5133 24.8806 72.3 24.8939 72.06C24.9072 71.8067 24.8206 71.6133 24.6339 71.48ZM33.0759 66.58C33.4759 66.38 33.8959 66.24 34.3359 66.16C34.7759 66.0667 35.2093 66.0467 35.6359 66.1C36.0759 66.14 36.4959 66.2533 36.8959 66.44C37.2959 66.6133 37.6693 66.8667 38.0159 67.2C38.3626 67.5467 38.6293 67.9267 38.8159 68.34C39.0026 68.7533 39.1359 69.2133 39.2159 69.72C39.2693 70.0667 39.3559 70.3867 39.4759 70.68C39.5959 70.9733 39.7226 71.2667 39.8559 71.56C40.0026 71.8533 40.1359 72.1467 40.2559 72.44C40.3893 72.7333 40.4959 73.04 40.5759 73.36C40.6426 73.6667 40.6159 73.9667 40.4959 74.26C40.3893 74.54 40.1626 74.7133 39.8159 74.78C39.6159 74.82 39.4226 74.8067 39.2359 74.74C39.0626 74.66 38.9026 74.5533 38.7559 74.42C38.6093 74.2733 38.4759 74.12 38.3559 73.96C38.2493 73.7867 38.1493 73.6267 38.0559 73.48C37.7493 73.88 37.4159 74.1933 37.0559 74.42C36.6959 74.6333 36.2626 74.7733 35.7559 74.84C35.3293 74.8933 34.9226 74.9067 34.5359 74.88C34.1493 74.8533 33.7359 74.78 33.2959 74.66C32.7226 74.5133 32.2493 74.26 31.8759 73.9C31.5159 73.5267 31.2359 73.1 31.0359 72.62C30.8493 72.1267 30.7493 71.6 30.7359 71.04C30.7226 70.48 30.7893 69.9267 30.9359 69.38C31.1226 68.66 31.4026 68.0733 31.7759 67.62C32.1493 67.1667 32.5826 66.82 33.0759 66.58ZM33.5759 68.92C33.3893 69.1067 33.2426 69.3267 33.1359 69.58C33.0293 69.8333 32.9626 70.1 32.9359 70.38C32.9226 70.66 32.9493 70.94 33.0159 71.22C33.0826 71.5 33.1893 71.7467 33.3359 71.96C33.4693 72.1467 33.6959 72.3067 34.0159 72.44C34.3359 72.56 34.6693 72.6333 35.0159 72.66C35.4159 72.6867 35.7626 72.58 36.0559 72.34C36.3626 72.1 36.5893 71.8 36.7359 71.44C36.8959 71.0667 36.9693 70.6733 36.9559 70.26C36.9426 69.8333 36.8293 69.4467 36.6159 69.1C36.4559 68.8467 36.2426 68.66 35.9759 68.54C35.7226 68.42 35.4493 68.36 35.1559 68.36C34.8626 68.3467 34.5693 68.3933 34.2759 68.5C33.9959 68.5933 33.7626 68.7333 33.5759 68.92ZM51.7484 66.24C51.8018 66.4 51.8151 66.58 51.7884 66.78C51.7618 66.98 51.7151 67.1867 51.6484 67.4C51.5818 67.6 51.5018 67.8 51.4084 68C51.3284 68.1867 51.2551 68.3533 51.1884 68.5C50.8418 69.2067 50.5151 69.9 50.2084 70.58C49.9018 71.26 49.5418 72 49.1284 72.8C49.0484 72.96 48.9551 73.1533 48.8484 73.38C48.7551 73.5933 48.6484 73.8067 48.5284 74.02C48.4084 74.22 48.2751 74.4067 48.1284 74.58C47.9951 74.7533 47.8484 74.88 47.6884 74.96C47.5551 75.04 47.4218 75.0733 47.2884 75.06C47.1818 75.0867 47.0618 75.0533 46.9284 74.96C46.7684 74.88 46.6151 74.7533 46.4684 74.58C46.3351 74.4067 46.2084 74.22 46.0884 74.02C45.9684 73.8067 45.8551 73.5933 45.7484 73.38C45.6551 73.1533 45.5684 72.96 45.4884 72.8C45.3284 72.4933 45.1751 72.2067 45.0284 71.94C44.8951 71.6733 44.7484 71.3867 44.5884 71.08C44.4418 70.76 44.2751 70.4 44.0884 70C43.9018 69.5867 43.6818 69.0867 43.4284 68.5C43.3618 68.34 43.2884 68.1733 43.2084 68C43.1284 67.8267 43.0551 67.64 42.9884 67.44C42.9351 67.24 42.8951 67.04 42.8684 66.84C42.8551 66.6267 42.8684 66.4133 42.9084 66.2C42.9484 66 43.0484 65.84 43.2084 65.72C43.3684 65.6 43.5484 65.52 43.7484 65.48C43.9484 65.44 44.1484 65.4467 44.3484 65.5C44.5484 65.54 44.7084 65.6267 44.8284 65.76C44.9484 65.88 45.0618 66.04 45.1684 66.24C45.2751 66.44 45.3751 66.6533 45.4684 66.88C45.5751 67.0933 45.6684 67.3133 45.7484 67.54C45.8418 67.7533 45.9284 67.94 46.0084 68.1C46.1951 68.4867 46.4018 68.9067 46.6284 69.36C46.8684 69.8133 47.0818 70.2333 47.2684 70.62C47.4018 70.3133 47.5218 70.06 47.6284 69.86C47.7351 69.6467 47.8351 69.44 47.9284 69.24C48.0351 69.04 48.1418 68.82 48.2484 68.58C48.3684 68.34 48.5151 68.0333 48.6884 67.66C48.8484 67.3133 49.0084 66.9733 49.1684 66.64C49.3418 66.3067 49.5484 66.0133 49.7884 65.76C49.9084 65.6267 50.0618 65.54 50.2484 65.5C50.4351 65.4467 50.6284 65.44 50.8284 65.48C51.0284 65.52 51.2084 65.6067 51.3684 65.74C51.5418 65.86 51.6684 66.0267 51.7484 66.24ZM61.5294 72.26C61.6894 72.22 61.8494 72.1933 62.0094 72.18C62.1827 72.1667 62.336 72.1867 62.4694 72.24C62.616 72.2933 62.736 72.3867 62.8294 72.52C62.9227 72.64 62.9694 72.8133 62.9694 73.04C62.9694 73.2 62.9294 73.3533 62.8494 73.5C62.7694 73.6467 62.6694 73.78 62.5494 73.9C62.4294 74.02 62.296 74.1267 62.1494 74.22C62.0027 74.3 61.8627 74.3667 61.7294 74.42C61.3427 74.5933 60.896 74.7267 60.3894 74.82C59.896 74.9133 59.3827 74.9467 58.8494 74.92C58.1294 74.8933 57.436 74.7533 56.7694 74.5C56.116 74.2333 55.6027 73.8 55.2294 73.2C54.8827 72.6133 54.676 71.96 54.6094 71.24C54.5427 70.52 54.576 69.84 54.7094 69.2C54.856 68.4267 55.1027 67.8 55.4494 67.32C55.8094 66.8267 56.236 66.4333 56.7294 66.14C57.3294 65.7933 58.0027 65.6133 58.7494 65.6C59.496 65.5867 60.2094 65.7333 60.8894 66.04C61.3427 66.24 61.7494 66.5133 62.1094 66.86C62.4694 67.1933 62.7427 67.6 62.9294 68.08C62.9827 68.2 63.0227 68.3467 63.0494 68.52C63.0894 68.6933 63.116 68.88 63.1294 69.08C63.1427 69.2667 63.1427 69.4533 63.1294 69.64C63.116 69.8267 63.0827 69.9933 63.0294 70.14C62.9494 70.38 62.8494 70.5667 62.7294 70.7C62.6094 70.8333 62.456 70.9333 62.2694 71C62.0827 71.0667 61.856 71.1133 61.5894 71.14C61.336 71.1533 61.0294 71.1667 60.6694 71.18C60.3494 71.1933 60.0494 71.2 59.7694 71.2C59.4894 71.2 59.2027 71.2 58.9094 71.2C58.616 71.1867 58.3094 71.18 57.9894 71.18C57.6827 71.1667 57.336 71.1533 56.9494 71.14C56.9094 71.4067 56.9427 71.64 57.0494 71.84C57.1694 72.0267 57.3294 72.1867 57.5294 72.32C57.7294 72.44 57.956 72.5333 58.2094 72.6C58.4627 72.6667 58.7094 72.7067 58.9494 72.72C59.4027 72.7467 59.836 72.7133 60.2494 72.62C60.6627 72.5133 61.0894 72.3933 61.5294 72.26ZM60.6694 68.38C60.416 68.0867 60.1494 67.8733 59.8694 67.74C59.656 67.6467 59.4294 67.6067 59.1894 67.62C58.9627 67.62 58.7427 67.6533 58.5294 67.72C58.1427 67.8133 57.816 68.0133 57.5494 68.32C57.5227 68.3467 57.476 68.4133 57.4094 68.52C57.3427 68.6133 57.276 68.7133 57.2094 68.82C57.156 68.9267 57.116 69.0267 57.0894 69.12C57.0627 69.2133 57.076 69.26 57.1294 69.26H61.0494C61.036 69.0733 61.0027 68.92 60.9494 68.8C60.896 68.6667 60.8027 68.5267 60.6694 68.38Z" fill="white"/>
</g>
<defs>
<filter id="filter0_d_67_9" x="0" y="0" width="82.92" height="72" filterUnits="userSpaceOnUse" color-interpolation-filters="sRGB">
<feFlood flood-opacity="0" result="BackgroundImageFix"/>
<feColorMatrix in="SourceAlpha" type="matrix" values="0 0 0 0 0 0 0 0 0 0 0 0 0 0 0 0 0 0 127 0" result="hardAlpha"/>
<feOffset/>
<feGaussianBlur stdDeviation="7.5"/>
<feComposite in2="hardAlpha" operator="out"/>
<feColorMatrix type="matrix" values="0 0 0 0 0 0 0 0 0 0 0 0 0 0 0 0 0 0 0.25 0"/>
<feBlend mode="normal" in2="BackgroundImageFix" result="effect1_dropShadow_67_9"/>
<feBlend mode="normal" in="SourceGraphic" in2="effect1_dropShadow_67_9" result="shape"/>
</filter>
<filter id="filter1_d_67_9" x="4.50505" y="49.9512" width="73.9931" height="40.4977" filterUnits="userSpaceOnUse" color-interpolation-filters="sRGB">
<feFlood flood-opacity="0" result="BackgroundImageFix"/>
<feColorMatrix in="SourceAlpha" type="matrix" values="0 0 0 0 0 0 0 0 0 0 0 0 0 0 0 0 0 0 127 0" result="hardAlpha"/>
<feOffset/>
<feGaussianBlur stdDeviation="7.67442"/>
<feComposite in2="hardAlpha" operator="out"/>
<feColorMatrix type="matrix" values="0 0 0 0 0 0 0 0 0 0 0 0 0 0 0 0 0 0 0.25 0"/>
<feBlend mode="normal" in2="BackgroundImageFix" result="effect1_dropShadow_67_9"/>
<feBlend mode="normal" in="SourceGraphic" in2="effect1_dropShadow_67_9" result="shape"/>
</filter>
</defs>
</svg>
