<svg width="83" height="60" viewBox="0 0 83 72" fill="none" xmlns="http://www.w3.org/2000/svg">
<g filter="url(#filter0_d_59_50)">
<rect x="15" y="15" width="52.92" height="42" rx="21" fill="white"/>
</g>
<path d="M43.6326 38.4394C43.5237 38.5129 41.2653 40.8306 41.2653 42.4573C41.2653 44.1724 42.3886 45.2676 43.6326 45.3273C44.705 45.3778 46 44.3044 46 42.4573C46 40.7354 43.7415 38.5129 43.6326 38.4394ZM31.3057 45.3273C31.7531 45.7612 32.3474 46 32.9794 46C33.6115 46 34.2057 45.7612 34.6532 45.3273L42.939 37.2914L42.1021 36.4798L32.9794 27.6323L30.2653 25L28.5915 26.6232L31.3057 29.2556L24.6936 35.6682C24.2462 36.1021 24 36.6784 24 37.2914C24 37.9044 24.2462 38.4807 24.6936 38.9147L31.3057 45.3273ZM32.9794 30.8788L39.5915 37.2914H26.3674L32.9794 30.8788Z" fill="#494949"/>
<line x1="50.5" y1="35.5" x2="58.5" y2="35.5" stroke="#494949" stroke-width="3" stroke-linecap="round"/>
<line x1="54.5" y1="31.5" x2="54.5" y2="39.5" stroke="#494949" stroke-width="3" stroke-linecap="round"/>
<defs>
<filter id="filter0_d_59_50" x="0" y="0" width="82.92" height="72" filterUnits="userSpaceOnUse" color-interpolation-filters="sRGB">
<feFlood flood-opacity="0" result="BackgroundImageFix"/>
<feColorMatrix in="SourceAlpha" type="matrix" values="0 0 0 0 0 0 0 0 0 0 0 0 0 0 0 0 0 0 127 0" result="hardAlpha"/>
<feOffset/>
<feGaussianBlur stdDeviation="7.5"/>
<feComposite in2="hardAlpha" operator="out"/>
<feColorMatrix type="matrix" values="0 0 0 0 0 0 0 0 0 0 0 0 0 0 0 0 0 0 0.25 0"/>
<feBlend mode="normal" in2="BackgroundImageFix" result="effect1_dropShadow_59_50"/>
<feBlend mode="normal" in="SourceGraphic" in2="effect1_dropShadow_59_50" result="shape"/>
</filter>
</defs>
</svg>
